<svg width="309" height="40" viewBox="0 0 309 40" fill="none" xmlns="http://www.w3.org/2000/svg">
<g clip-path="url(#clip0_72_3)">
<path d="M14.2 16.9H1.39999V14.5C1.39999 13.6 1.59999 12.8 1.99999 12.2C2.39999 11.6 2.99999 11 3.59999 10.6C4.19999 10.2 4.99999 9.7 5.69999 9.4C6.49999 9 7.19999 8.7 7.79999 8.3C8.49999 7.9 8.99999 7.5 9.39999 7C9.79999 6.5 9.99999 5.9 9.99999 5.1C9.99999 4.2 9.79999 3.4 9.39999 2.9C8.99999 2.4 8.69999 1.9 7.99999 1.9C7.29999 1.9 6.79999 2.2 6.39999 2.7C5.99999 3.3 5.79999 4 5.79999 5V5.6H1.59999V5C1.59999 4.2 1.79999 3.5 2.09999 2.9C2.39999 2.3 2.79999 1.8 3.39999 1.3C3.99999 0.8 4.59999 0.6 5.39999 0.3C6.19999 0.1 7.09999 0 7.99999 0C8.89999 0 9.79999 0.1 10.6 0.3C11.4 0.5 12.1 0.8 12.6 1.3C13.2 1.7 13.6 2.2 13.9 2.9C14.2 3.5 14.4 4.2 14.4 5C14.4 5.7 14.3 6.3 14 6.9C13.7 7.4 13.4 7.9 13 8.3C12.6 8.7 12.1 9 11.6 9.3C11.1 9.6 10.5 9.9 9.99999 10.2C9.49999 10.5 8.89999 10.7 8.39999 11C7.89999 11.3 7.39999 11.6 6.99999 11.9C6.59999 12.2 6.29999 12.6 5.99999 13C5.69999 13.4 5.59999 13.9 5.59999 14.5V15H14.2V16.9Z" fill="#79191C"/>
<path d="M30.2 10.5C30.2 12.7 29.6 14.4 28.4 15.5C27.2 16.6 25.5 17.2 23.2 17.2C20.9 17.2 19.1 16.6 18 15.5C16.8 14.4 16.2 12.7 16.2 10.5V6.8C16.2 4.6 16.8 2.9 18 1.8C19.2 0.6 20.9 0 23.2 0C25.5 0 27.3 0.6 28.4 1.7C29.6 2.8 30.2 4.5 30.2 6.7V10.5ZM26 6.9C26 6.1 26 5.4 25.9 4.8C25.8 4.2 25.7 3.7 25.5 3.2C25.3 2.7 25 2.4 24.6 2.2C24.2 2 23.8 1.9 23.2 1.9C22.6 1.9 22.2 2 21.8 2.2C21.4 2.4 21.2 2.8 20.9 3.2C20.7 3.6 20.5 4.2 20.5 4.8C20.4 5.4 20.4 6.1 20.4 6.9V10.4C20.4 11.2 20.4 11.9 20.5 12.5C20.6 13.1 20.7 13.6 20.9 14.1C21.1 14.5 21.4 14.9 21.8 15.1C22.2 15.3 22.6 15.4 23.2 15.4C23.8 15.4 24.2 15.3 24.6 15.1C25 14.9 25.2 14.5 25.5 14.1C25.7 13.7 25.9 13.1 25.9 12.5C25.9 11.9 26 11.2 26 10.4V6.9Z" fill="#79191C"/>
<path d="M45 16.9H32.2V14.5C32.2 13.6 32.4 12.8 32.8 12.2C33.2 11.6 33.8 11 34.4 10.6C35 10.2 35.8 9.7 36.5 9.4C37.3 9 38 8.7 38.6 8.3C39.3 7.9 39.8 7.5 40.2 7C40.6 6.5 41 5.7 41 5C41 4.1 40.8 3.3 40.4 2.8C40 2.3 39.5 2 38.8 2C38.1 2 37.6 2.3 37.2 2.8C36.8 3.3 36.6 4 36.6 5V5.6H32.4V5C32.4 4.2 32.6 3.5 32.9 2.9C33.2 2.3 33.6 1.8 34.2 1.3C34.8 0.8 35.4 0.6 36.2 0.3C37 0.1 37.9 0 38.8 0C39.7 0 40.6 0.1 41.4 0.3C42.2 0.5 42.9 0.8 43.4 1.3C44 1.7 44.4 2.2 44.7 2.9C45 3.5 45.2 4.2 45.2 5C45.2 5.7 45.1 6.3 44.8 6.9C44.5 7.4 44.2 7.9 43.8 8.3C43.4 8.7 42.9 9 42.4 9.3C41.9 9.6 41.3 9.9 40.8 10.2C40.3 10.5 39.7 10.7 39.2 11C38.7 11.3 38.2 11.6 37.8 11.9C37.4 12.2 37.1 12.6 36.8 13C36.5 13.4 36.4 13.9 36.4 14.5V15H45V16.9Z" fill="#79191C"/>
<path d="M59.5 16.9H55.3V13.9H46.9V11.8L55.1 0.399994H59.5V12H61.6V13.9H59.5V16.9ZM55.3 12V4.79999L50 12H55.3Z" fill="#79191C"/>
<path d="M11.9 32C10.9 31.6 9.9 31.2 9 30.6C8.1 30.1 7.3 29.4 6.6 28.7C5.9 29.5 5.1 30.1 4.1 30.7C3.2 31.3 2.2 31.8 1.1 32.2L0 30.8C0.6 30.5 1.2 30.1 1.7 29.7C2.2 29.3 2.7 28.8 3.1 28.3C3.5 27.8 3.8 27.3 4.1 26.8C4.3 26.3 4.5 25.7 4.5 25.2V24.9H0.7V23.1H4.5V21.7H8.8V23.1H12.6V24.9H8.7V25.2C8.7 25.7 8.8 26.2 9 26.7C9.2 27.2 9.5 27.7 9.9 28.1C10.3 28.5 10.7 29 11.3 29.4C11.8 29.8 12.4 30.2 13.1 30.5L11.9 32ZM18.7 39.9H3.4C3.1 39.9 2.8 39.8 2.6 39.6C2.4 39.4 2.3 39.1 2.3 38.8V32.9H18.7V39.9ZM14.5 38.1V34.7H6.5V38.1H14.5ZM18.7 32.3H14.5V28H11.3V26H14.5V22H18.7V32.3Z" fill="#213B66"/>
<path d="M37.9 35.5H33.7V32.1C33.1 32.2 32.5 32.2 31.8 32.2C31.2 32.2 30.5 32.3 29.9 32.3H21.8C21.5 32.3 21.2 32.2 21 32C20.8 31.8 20.7 31.5 20.7 31.2V22.7H32V24.5H25V30.5H30C30.6 30.5 31.3 30.5 31.9 30.5C32.5 30.5 33.2 30.4 33.8 30.4V22.2H38V26.8H40.1V28.8H38V35.5H37.9ZM38.1 39.9H22.6C22.3 39.9 22 39.8 21.8 39.6C21.6 39.4 21.5 39.1 21.5 38.8V34.1H25.7V38.1H38.1V39.9Z" fill="#213B66"/>
<path d="M51.7 38.7H41.8C41.5 38.7 41.2 38.6 41 38.4C40.8 38.2 40.7 37.9 40.7 37.6V22.8H44.9V28.8H47.5V22.8H51.7V38.7ZM47.5 36.9V30.6H44.9V36.9H47.5ZM57.6 39.9H53.4V22.1H57.6V29.1H59.9V31.1H57.6V39.9Z" fill="#213B66"/>
<path d="M70.8 36.6C70.3 37.3 69.6 37.8 68.8 38.2C68 38.6 67.1 38.8 66.1 38.8C65.1 38.8 64.2 38.6 63.4 38.2C62.6 37.8 62 37.3 61.5 36.6C61 35.9 60.6 35 60.3 34C60 33 59.9 31.8 59.9 30.5C59.9 29.2 60 28.1 60.3 27C60.6 26 61 25.1 61.5 24.4C62 23.7 62.7 23.2 63.4 22.8C64.2 22.4 65.1 22.2 66.1 22.2C67.1 22.2 68 22.4 68.8 22.8C69.6 23.2 70.2 23.7 70.8 24.4C71.3 25.1 71.7 26 72 27C72.3 28 72.4 29.2 72.4 30.5C72.4 31.8 72.3 33 72 34C71.7 35.1 71.3 35.9 70.8 36.6ZM66.2 37C66.8 37 67.3 36.5 67.7 35.4C68.1 34.3 68.2 32.7 68.2 30.7C68.2 28.6 68 27.1 67.7 26C67.3 24.9 66.8 24.4 66.2 24.4C65.6 24.4 65.1 24.9 64.7 26C64.3 27.1 64.1 28.7 64.1 30.7C64.1 32.8 64.3 34.3 64.7 35.4C65 36.4 65.5 37 66.2 37ZM78.1 39.9H73.9V22.1H78.1V39.9Z" fill="#213B66"/>
<path d="M98.3 39.1H80V37.3H86.9V33.7C86 33.6 85.1 33.3 84.4 33C83.6 32.7 83 32.3 82.4 31.8C81.9 31.3 81.4 30.8 81.1 30.1C80.8 29.5 80.7 28.8 80.7 28.1C80.7 27.2 80.9 26.4 81.3 25.7C81.7 25 82.3 24.4 83.1 23.9C83.8 23.4 84.7 23 85.8 22.7C86.8 22.4 88 22.3 89.2 22.3C90.4 22.3 91.6 22.4 92.6 22.7C93.6 23 94.5 23.4 95.3 23.9C96 24.4 96.6 25 97.1 25.7C97.6 26.4 97.7 27.2 97.7 28.1C97.7 28.8 97.6 29.5 97.3 30.1C97 30.7 96.6 31.3 96 31.8C95.5 32.3 94.8 32.7 94 33C93.2 33.3 92.4 33.6 91.5 33.7V37.3H98.4V39.1H98.3ZM92.2 30.9C92.6 30.5 92.9 30.1 93.1 29.6C93.3 29.1 93.4 28.6 93.4 28C93.4 27.4 93.3 26.9 93.1 26.4C92.9 25.9 92.6 25.5 92.2 25.1C91.8 24.7 91.4 24.5 90.9 24.3C90.4 24.1 89.8 24 89.2 24C88.6 24 88 24.1 87.5 24.3C87 24.5 86.5 24.8 86.2 25.1C85.8 25.5 85.5 25.9 85.3 26.4C85.1 26.9 85 27.4 85 28C85 28.6 85.1 29.1 85.3 29.6C85.5 30.1 85.8 30.5 86.2 30.9C86.6 31.3 87 31.5 87.5 31.7C88 31.9 88.6 32 89.2 32C89.8 32 90.4 31.9 90.9 31.7C91.4 31.5 91.8 31.2 92.2 30.9Z" fill="#213B66"/>
<path d="M117.7 39.9H113.5V38.1C112.9 38.2 112.3 38.2 111.6 38.2C111 38.2 110.3 38.3 109.7 38.3H99.8V36.5H109.7C110.3 36.5 111 36.5 111.6 36.5C112.2 36.5 112.9 36.4 113.5 36.4V22.1H117.7V39.9ZM111.7 30.6C111.4 31.3 111 31.9 110.4 32.4C109.9 32.9 109.2 33.3 108.4 33.6C107.6 33.9 106.9 34 106 34C105.1 34 104.3 33.9 103.5 33.6C102.7 33.3 102.1 32.9 101.6 32.4C101.1 31.9 100.6 31.3 100.3 30.6C100 29.9 99.8 29.1 99.8 28.2C99.8 27.3 100 26.6 100.3 25.8C100.6 25.1 101 24.5 101.6 24C102.1 23.5 102.8 23.1 103.5 22.8C104.3 22.5 105.1 22.4 106 22.4C106.9 22.4 107.7 22.5 108.5 22.8C109.3 23.1 109.9 23.5 110.5 24C111 24.5 111.5 25.1 111.8 25.8C112.1 26.5 112.3 27.3 112.3 28.2C112.2 29.1 112 29.8 111.7 30.6ZM106 32.2C106.7 32.2 107.1 31.8 107.5 31.1C107.8 30.4 108 29.4 108 28.2C108 27 107.8 26 107.5 25.3C107.2 24.6 106.7 24.2 106 24.2C105.3 24.2 104.9 24.6 104.5 25.3C104.2 26 104 27 104 28.2C104 29.4 104.2 30.4 104.5 31.1C104.9 31.8 105.4 32.2 106 32.2Z" fill="#213B66"/>
<path d="M131 29.1C130.7 29.7 130.3 30.2 129.7 30.7C129.1 31.1 128.5 31.5 127.7 31.7C126.9 31.9 126.1 32.1 125.2 32.1C124.3 32.1 123.5 32 122.7 31.7C121.9 31.5 121.3 31.1 120.7 30.7C120.1 30.3 119.7 29.7 119.4 29.1C119.1 28.5 118.9 27.8 118.9 27.1C118.9 26.4 119.1 25.7 119.4 25.1C119.7 24.5 120.1 24 120.7 23.5C121.3 23.1 121.9 22.7 122.7 22.5C123.5 22.3 124.3 22.1 125.2 22.1C126.1 22.1 126.9 22.2 127.7 22.5C128.5 22.7 129.1 23.1 129.7 23.5C130.3 23.9 130.7 24.5 131 25.1C131.3 25.7 131.5 26.4 131.5 27.1C131.4 27.8 131.3 28.5 131 29.1ZM136.9 39.9H132.7V35.1H120.3V33.3H136.9V39.9ZM125.2 30.3C125.8 30.3 126.3 30 126.7 29.4C127.1 28.8 127.2 28 127.2 27.1C127.2 26.2 127 25.4 126.7 24.8C126.4 24.2 125.8 23.9 125.2 23.9C124.6 23.9 124.1 24.2 123.7 24.8C123.3 25.4 123.2 26.2 123.2 27.1C123.2 28 123.4 28.8 123.7 29.4C124 30 124.6 30.3 125.2 30.3ZM136.9 32.7H132.7V22.1H136.9V24.4H139V26.4H136.9V28.4H139V30.4H136.9V32.7Z" fill="#213B66"/>
<path d="M156.7 39.9H141.4C141.1 39.9 140.8 39.8 140.6 39.6C140.4 39.4 140.3 39.1 140.3 38.8V33.7H146.3V32H139.3V30.2H157.7V32H150.7V33.7H156.7V39.9ZM157.3 29H139.7V27.2H142.1V24.3H139.8V22.5H157.2V24.3H154.9V27.2H157.3V29ZM152.5 38.1V35.5H144.5V38.1H152.5ZM150.7 27.2V24.3H146.3V27.2H150.7Z" fill="#213B66"/>
<path d="M176.8 25.7H164.3V23.9H168.5V21.9H172.7V23.9H176.8V25.7ZM182.5 39.9H178.3V32.9H176.5C176.5 33.8 176.3 34.6 176 35.3C175.7 36 175.3 36.7 174.8 37.2C174.3 37.7 173.7 38.1 173 38.4C172.3 38.7 171.5 38.8 170.7 38.8C169.8 38.8 169 38.6 168.3 38.3C167.6 38 167 37.6 166.4 37C165.9 36.4 165.5 35.8 165.2 35C164.9 34.2 164.8 33.4 164.8 32.5C164.8 31.6 164.9 30.7 165.2 30C165.5 29.2 165.9 28.6 166.4 28C166.9 27.5 167.5 27 168.3 26.7C169.1 26.4 169.8 26.2 170.7 26.2C171.4 26.2 172.1 26.3 172.7 26.5C173.3 26.7 173.9 27 174.4 27.4C174.9 27.8 175.3 28.3 175.7 28.8C176.1 29.3 176.3 30 176.5 30.7H178.5V21.9H182.7V39.9H182.5ZM171.4 36.8C171.6 36.6 171.8 36.3 171.9 35.9C172 35.5 172.2 35 172.2 34.5C172.3 34 172.3 33.3 172.3 32.7C172.3 32.1 172.3 31.4 172.2 30.9C172.1 30.4 172 29.9 171.9 29.5C171.8 29.1 171.6 28.8 171.4 28.6C171.2 28.4 170.9 28.3 170.7 28.3C170.4 28.3 170.2 28.4 170 28.6C169.8 28.8 169.6 29.1 169.5 29.5C169.4 29.9 169.2 30.4 169.2 30.9C169.2 31.4 169.1 32.1 169.1 32.7C169.1 33.3 169.1 34 169.2 34.5C169.3 35 169.4 35.5 169.5 35.9C169.6 36.3 169.8 36.6 170 36.8C170.2 37 170.5 37.1 170.7 37.1C170.9 37.1 171.1 37 171.4 36.8Z" fill="#79191C"/>
<path d="M195.6 25.7C195.6 27.1 195.4 28.4 194.9 29.7C194.4 31 193.7 32.1 192.8 33.2C191.9 34.3 190.8 35.3 189.6 36.1C188.3 37 186.9 37.7 185.4 38.3L184.1 36.8C185.4 36.3 186.6 35.6 187.5 34.7C188.4 33.8 189.2 32.9 189.7 31.9C190.3 30.9 190.7 29.9 190.9 28.8C191.1 27.7 191.3 26.7 191.3 25.8V24.6H184.8V22.8H195.6V25.7ZM201.9 39.9H197.7V22.1H201.9V28.9H204.2V30.9H201.9V39.9Z" fill="#79191C"/>
<path d="M223 38.9H204.7V37H207.2V30.1H211.3V37H212.7V30.1H216.8V37H222.9V38.9H223ZM217.6 34.5C217.7 33.8 217.8 33 217.8 32.1C217.8 31.2 217.9 30.4 217.9 29.6V24.6H205.7V22.8H222V29.6C222 30.4 222 31.2 221.9 32.1C221.8 33 221.7 33.8 221.6 34.5H217.6Z" fill="#79191C"/>
<path d="M242.1 39.9H237.9V35.7H225.5V33.9H227.8V32.2H224.7V30.4H243.1V32.2H239.6V33.9H242.1V39.9ZM241.9 27.5C241.5 28 240.9 28.4 240.2 28.7C239.5 29 238.6 29.3 237.5 29.4C236.4 29.6 235.2 29.7 233.9 29.7C232.6 29.7 231.4 29.6 230.3 29.4C229.2 29.2 228.3 29 227.6 28.7C226.9 28.4 226.3 28 225.9 27.5C225.5 27 225.3 26.5 225.3 25.9C225.3 25.3 225.5 24.7 225.9 24.3C226.3 23.8 226.9 23.4 227.6 23.1C228.3 22.8 229.2 22.5 230.3 22.4C231.4 22.2 232.6 22.1 233.9 22.1C235.2 22.1 236.4 22.2 237.5 22.4C238.6 22.6 239.5 22.8 240.2 23.1C240.9 23.4 241.5 23.8 241.9 24.3C242.3 24.8 242.5 25.3 242.5 25.9C242.5 26.5 242.3 27 241.9 27.5ZM237.1 27.3C237.5 27.1 237.8 26.9 237.9 26.6C238.1 26.4 238.2 26.1 238.2 25.9C238.2 25.7 238.1 25.4 237.9 25.2C237.7 25 237.4 24.7 237.1 24.6C236.7 24.4 236.3 24.3 235.7 24.1C235.1 23.9 234.5 23.9 233.8 23.9C233.1 23.9 232.5 24 231.9 24.1C231.4 24.2 230.9 24.4 230.5 24.6C230.1 24.8 229.8 25 229.7 25.2C229.5 25.4 229.4 25.7 229.4 25.9C229.4 26.1 229.5 26.4 229.7 26.6C229.9 26.8 230.2 27.1 230.5 27.2C230.9 27.4 231.3 27.5 231.9 27.7C232.4 27.8 233.1 27.9 233.8 27.9C234.5 27.9 235.1 27.8 235.7 27.7C236.3 27.6 236.8 27.5 237.1 27.3ZM235.4 33.9V32.2H232V33.9H235.4Z" fill="#79191C"/>
<path d="M258.7 39.9H254.5V33.9H250.5V32H259.4C260.1 32 260.8 32 261.5 32C262.2 32 262.9 32 263.5 31.9V33.7C262.9 33.8 262.2 33.8 261.5 33.8C260.8 33.8 260.1 33.8 259.4 33.8H258.8V39.9H258.7ZM262.4 28.5C262.1 29 261.7 29.5 261.1 29.9C260.6 30.3 259.9 30.6 259.2 30.8C258.5 31 257.6 31.1 256.8 31.1C256 31.1 255.1 31 254.4 30.8C253.7 30.6 253 30.3 252.5 29.9C252 29.5 251.5 29 251.2 28.5C250.9 28 250.7 27.3 250.7 26.6C250.7 25.9 250.9 25.3 251.2 24.7C251.5 24.1 251.9 23.7 252.5 23.3C253.1 22.9 253.7 22.6 254.4 22.4C255.1 22.2 256 22.1 256.8 22.1C257.6 22.1 258.5 22.2 259.2 22.4C259.9 22.6 260.6 22.9 261.1 23.3C261.6 23.7 262.1 24.2 262.4 24.7C262.7 25.3 262.9 25.9 262.9 26.6C262.8 27.3 262.7 27.9 262.4 28.5ZM256.7 29.3C257.3 29.3 257.8 29.1 258.1 28.6C258.4 28.1 258.6 27.5 258.6 26.7C258.6 25.9 258.4 25.3 258.1 24.8C257.8 24.3 257.3 24.1 256.7 24.1C256.1 24.1 255.6 24.3 255.3 24.8C255 25.3 254.8 25.9 254.8 26.7C254.8 27.5 255 28.1 255.3 28.6C255.7 29 256.1 29.3 256.7 29.3ZM268.4 39.9H264.2V37.1H260.6V35.1H264.2V22.1H268.4V39.9Z" fill="#79191C"/>
<path d="M288.8 38.9H270.5V37H282.9C283.1 36.2 283.2 35.3 283.3 34.4C283.4 33.5 283.4 32.6 283.4 31.6V31.4H271.4V29.6H283.4V24.3H271.5V22.5H287.6V31.6C287.6 32.5 287.6 33.4 287.5 34.4C287.4 35.3 287.3 36.2 287.1 37H288.8V38.9Z" fill="#79191C"/>
<path d="M309 32.4H290.6V30.6H294.2V29.1H298.4V30.6H301.2V29.1H305.4V30.6H309V32.4ZM308.1 29.4C307.4 29.4 306.6 29.3 305.8 29.1C305 28.9 304.2 28.7 303.5 28.5C302.7 28.2 302 27.9 301.4 27.5C300.7 27.1 300.2 26.7 299.7 26.2C299.2 26.7 298.7 27.1 298 27.5C297.3 27.9 296.6 28.2 295.9 28.5C295.1 28.8 294.4 29 293.6 29.1C292.8 29.3 292 29.4 291.3 29.4L290.5 28C291.5 27.9 292.4 27.6 293.3 27.3C294.2 27 294.9 26.6 295.5 26.1C296.1 25.7 296.6 25.2 297 24.7C297.4 24.2 297.5 23.7 297.5 23.2V22.2H301.7V23.2C301.7 23.7 301.9 24.2 302.2 24.7C302.6 25.2 303.1 25.7 303.7 26.1C304.3 26.5 305.1 26.9 305.9 27.3C306.8 27.6 307.7 27.9 308.7 28L308.1 29.4ZM307.9 39.9H292.6C292.3 39.9 292 39.8 291.8 39.6C291.6 39.4 291.5 39.1 291.5 38.8V33.1H295.7V34.7H303.7V33.1H307.9V39.9ZM303.7 38.1V36.4H295.7V38.1H303.7Z" fill="#79191C"/>
</g>
<defs>
<clipPath id="clip0_72_3">
<rect width="309" height="39.9" fill="white"/>
</clipPath>
</defs>
</svg>
