<svg width="83" height="29" viewBox="0 0 83 29" fill="none" xmlns="http://www.w3.org/2000/svg">
<path d="M12.5 10.3999H8.90002L9.80005 7.19995H13.4L12.5 10.3999Z" fill="#0094D1"/>
<path d="M43.9 7.19995L43.1 10.3999H51.4L52.3 7.19995H43.9Z" fill="#0094D1"/>
<path d="M21.9 0.599976H8.19994C5.99994 0.599976 3.90004 2.29996 3.30004 4.39996L0.800035 13.8C0.500035 14.8 0.699938 15.8 1.19994 16.5C1.69994 17.2 2.59996 17.6 3.59996 17.6H14.1999C16.5999 17.6 18.5 15.9 19.1 13.8L20.4 8.99997C20.5 8.49997 20.4999 8.09998 20.1999 7.69998C19.9999 7.39998 19.5 7.19998 19.1 7.19998H15L14.1 10.4H16.4L15.5 13.7C15.5 13.8 15.2999 14 15.1999 14H4.59996C4.49996 14 4.50001 14 4.40001 13.9C4.40001 13.9 4.40001 13.8 4.40001 13.7L6.90001 4.29996C6.90001 4.19996 7.09994 3.99997 7.19994 3.99997H20.9L21.9 0.599976Z" fill="#1B4788"/>
<path d="M59.7 8.29993C59.2 7.59993 58.4 7.19995 57.5 7.19995H53.8L52.9 10.3999C52.9 10.3999 56.2 10.3999 56.4 10.3999C56.5 10.3999 56.6 10.4999 56.6 10.5999C56.6 10.7999 55.8 13.7 55.8 13.7C55.8 13.8 55.6 13.9999 55.5 13.9999H42.1L41.1 17.5999H54.4C56.8 17.5999 58.7 15.8999 59.3 13.7999L60 11.0999C60.4 9.99995 60.2 9.09993 59.7 8.29993Z" fill="#1B4788"/>
<path d="M32.8 10.3999H27.6L28.4 7.19995H33.7L32.8 10.3999Z" fill="#0094D1"/>
<path d="M38 0.599976H26.9C25.9 0.599976 24.9 1.39996 24.6 2.39996L21 15.8C20.9 16.3 20.9 16.7 21.2 17.1C21.4 17.4 21.8001 17.6 22.3001 17.6H33.4C37.1 17.6 39.6001 15.4 40.3001 12.5C40.6001 11.2 40.3001 9.69998 39.3001 9.09998C40.9001 8.39998 41.5001 6.99998 41.8001 5.69998C42.4001 2.79998 40.7 0.599976 38 0.599976ZM38.1 5.69998C37.9 6.49998 37.3 7.09998 36.2 7.09998H35.3001L34.4 10.3H35.3001C36.4001 10.3 36.9 11.2 36.6 12.2C36.3 13.2 35.5001 13.9 34.3001 13.9H25.2C25.1 13.9 25.1 13.9 25 13.8C25 13.8 25 13.7 25 13.6L27.5 4.19998C27.5 4.09998 27.7001 3.89996 27.8001 3.89996H36.8001C37.8001 4.09996 38.3 4.89998 38.1 5.69998Z" fill="#1B4788"/>
<path d="M49.6 0.600006C47.3 0.600006 45.3 2.39999 44.8 4.39999L44.4 5.79999H48L48.4 4.39999C48.4 4.29999 48.6 4.10001 48.7 4.10001H61.2L62.2 0.5H49.6V0.600006Z" fill="#1B4788"/>
<path d="M82.6 17.6C82.6 17.6 77.3 4.29998 76 1.09998C75.8 0.499976 75.1 0.0999756 74.3 0.0999756C73.5 0.0999756 72.8 0.499976 72.3 1.09998L68.7 5.79996H73.5L78 17.6H82.6Z" fill="#1B4788"/>
<path d="M73.7 10.3999L72.5 7.19995H63.2L62.3 10.3999H73.7Z" fill="#0094D1"/>
<path d="M64.3 11.7L59.8 17.5999H64.9L69.3 11.7H64.3Z" fill="#1B4788"/>
<path d="M11.2 23.5C10.8 24.7 9.79995 25.4 8.19995 25.9L7.80005 25.1C9.40005 24.7 10.2 23.9 10.4 22.9H8.19995V22H11.5C11.5 22.2 11.5 22.5 11.5 22.7H12.8V21.5H13.8V25.7H12.8V25H11.2V24.2H12.8V23.5H11.2ZM13.8 27.3C13.8 28.2 12.8 28.8 11.4 28.8C9.90002 28.8 9 28.2 9 27.3C9 26.4 10 25.8 11.4 25.8C12.9 25.9 13.8 26.4 13.8 27.3ZM12.8 27.3C12.8 26.9 12.3 26.6 11.4 26.6C10.5 26.6 10 26.8 10 27.3C10 27.8 10.5 28 11.4 28C12.3 28 12.8 27.8 12.8 27.3Z" fill="#58595B"/>
<path d="M18.4 22.3C18.4 24.5 17.7 26.4 15.1 27.6L14.6 26.8C16.4 25.9 17.2 24.8 17.4 23.1H15V22.3H18.4ZM20.5 21.5V28.8H19.5V21.5H20.5Z" fill="#58595B"/>
<path d="M27.8 27.2V28.1H21.3V27.2H24V25.7H22V22H27V22.8H23V24.7H27V25.5H25V27H27.8V27.2Z" fill="#58595B"/>
<path d="M31.5 23.5C31.1 24.7 30.1 25.4 28.5 25.9L28.1 25.1C29.7 24.7 30.5 23.9 30.7 22.9H28.5V22H31.8C31.8 22.2 31.8 22.5 31.8 22.7H33.1V21.5H34.1V25.7H33.1V25H31.5V24.2H33.1V23.5H31.5ZM34.1 27.3C34.1 28.2 33.1 28.8 31.7 28.8C30.2 28.8 29.3 28.2 29.3 27.3C29.3 26.4 30.3 25.8 31.7 25.8C33.1 25.9 34.1 26.4 34.1 27.3ZM33 27.3C33 26.9 32.5 26.6 31.6 26.6C30.7 26.6 30.2 26.8 30.2 27.3C30.2 27.8 30.7 28 31.6 28C32.5 28 33 27.8 33 27.3Z" fill="#58595B"/>
<path d="M37.1 23.5C37.1 24.7 37.5 26 38.5 26.6L37.9 27.4C37.3 27 36.9 26.4 36.6 25.6C36.4 26.4 35.9 27.1 35.3 27.6L34.7 26.8C35.7 26.1 36.1 24.8 36.1 23.6V23.2H34.9V22.3H38.1V23.2H37.1V23.5ZM38.6 21.7H39.6V28.6H38.6V25H37.7V24H38.6V21.7ZM41 21.5V28.8H40V21.5H41Z" fill="#58595B"/>
<path d="M44 26.5C44.7 26.5 45.4 26.4 46 26.3L46.1 27.1C44.6 27.4 43 27.4 41.8 27.4L41.7 26.5C42.1 26.5 42.5 26.5 43 26.5V24.3H44V26.5ZM44.5 25.6C44.7 24.6 44.7 23.8 44.7 23.1H42V22.3H45.7V22.9C45.7 23.6 45.7 24.5 45.5 25.7L44.5 25.6ZM48.4 25.4H47.4V28.9H46.4V21.6H47.4V24.5H48.4V25.4Z" fill="#58595B"/>
<path d="M52.9 23H48.7V22.2H50.3V21.5H51.3V22.2H52.9V23ZM50.8 25.9C49.8 25.9 49 25.4 49 24.5C49 23.7 49.7 23.2 50.8 23.2C51.8 23.2 52.6 23.7 52.6 24.5C52.5 25.4 51.8 25.9 50.8 25.9ZM49.5 26.4H54.3V28.8H53.3V27.2H49.5V26.4ZM50.8 25.1C51.3 25.1 51.6 24.9 51.6 24.5C51.6 24.1 51.3 24 50.8 24C50.3 24 50 24.2 50 24.5C50 25 50.3 25.1 50.8 25.1ZM55.3 24.3H54.3V26.1H53.3V21.5H54.3V23.4H55.3V24.3Z" fill="#58595B"/>
<path d="M59.4 25.9C58.6 25.6 58.1 25.1 57.7 24.5C57.4 25.2 56.8 25.8 56 26.1L55.5 25.3C56.7 24.9 57.2 24 57.2 23V22.9H55.8V22.1H59.7V22.9H58.3V23C58.3 23.9 58.8 24.8 60 25.1L59.4 25.9ZM61.6 27.9V28.7H56.6V26.3H57.6V27.8H61.6V27.9ZM61.4 26.8H60.4V21.5H61.4V26.8Z" fill="#58595B"/>
<path d="M68.7 25.5V26.3H62.2V25.5H68.7ZM68.4 22.9H62.6V22.1H65V21.5H66V22.1H68.4V22.9ZM67.9 27.7C67.9 28.4 67 28.8 65.4 28.8C63.8 28.8 62.9 28.4 62.9 27.7C62.9 27 63.8 26.6 65.4 26.6C67 26.6 67.9 27 67.9 27.7ZM65.5 23.1C67 23.1 67.9 23.5 67.9 24.2C67.9 24.9 67 25.2 65.5 25.2C64 25.2 63.1 24.8 63.1 24.2C63.1 23.4 63.9 23.1 65.5 23.1ZM66.9 27.7C66.9 27.4 66.5 27.3 65.5 27.3C64.5 27.3 64.1 27.4 64.1 27.7C64.1 28 64.5 28.1 65.5 28.1C66.4 28.1 66.9 28 66.9 27.7ZM65.5 23.8C64.6 23.8 64.2 23.9 64.2 24.1C64.2 24.3 64.6 24.4 65.5 24.4C66.4 24.4 66.8 24.3 66.8 24.1C66.8 23.9 66.4 23.8 65.5 23.8Z" fill="#58595B"/>
<path d="M75.4 27.9V28.7H70.1V26.5H71.1V25.5C70.5 25.5 69.9 25.5 69.3 25.5L69.2 24.7C70.5 24.7 72.3 24.7 73.8 24.5L73.9 25.2C73.3 25.3 72.8 25.4 72.2 25.4V26.8H71.2V27.8H75.4V27.9ZM69.7 23.1C69.7 22.3 70.4 21.8 71.5 21.8C72.5 21.8 73.3 22.3 73.3 23.1C73.3 23.9 72.6 24.4 71.5 24.4C70.5 24.4 69.7 23.9 69.7 23.1ZM70.7 23.1C70.7 23.5 71 23.6 71.5 23.6C72 23.6 72.3 23.4 72.3 23.1C72.3 22.7 72 22.6 71.5 22.6C71 22.6 70.7 22.7 70.7 23.1ZM74.2 25.8V21.5H75.2V27H74.2V26.4H72.9V25.7H74.2V25.8Z" fill="#58595B"/>
</svg>
