<svg width="128" height="31" viewBox="0 0 128 31" fill="none" xmlns="http://www.w3.org/2000/svg">
<path d="M39.5 5.29993L41.4 8.09995L40.8 8.49994L39.5 6.49994L38.2 8.49994L37.6 8.09995L39.5 5.29993ZM38.2 8.99994H42.9V11.2H42.2V9.69995H38.2V8.99994ZM42.2 5.29993H42.9V8.59995H42.2V5.29993Z" fill="#3E3A39"/>
<path d="M46.3 9.09991V8.59991H44V7.99991H49.4V8.59991H47V9.09991H48.9V11.0999H44.3V9.09991H46.3ZM44.3 5.3999H49V5.99991H48.2V6.8999H49V7.49991H44.3V6.8999H45.1V5.99991H44.3V5.3999ZM48.2 9.7999H45.1V10.4999H48.2V9.7999ZM47.5 5.99991H45.8V6.8999H47.5V5.99991Z" fill="#3E3A39"/>
<path d="M54.1 9.89993V10.5999H50.1V9.89993H54.1ZM53.8 7.19995C53.8 7.39995 53.8 7.59993 53.7 7.79993C53.6 7.99993 53.5 8.19993 53.3 8.29993C53.2 8.39993 53 8.59995 52.8 8.59995C52.6 8.69995 52.4 8.69995 52.1 8.69995C51.9 8.69995 51.7 8.69995 51.4 8.59995C51.2 8.49995 51 8.39993 50.9 8.29993C50.7 8.19993 50.6 7.99993 50.5 7.79993C50.4 7.59993 50.4 7.39995 50.4 7.19995C50.4 6.99995 50.4 6.79995 50.5 6.59995C50.6 6.39995 50.7 6.19995 50.9 6.09995C51 5.99995 51.2 5.79993 51.4 5.79993C51.6 5.69993 51.8 5.69995 52.1 5.69995C52.3 5.69995 52.5 5.69993 52.8 5.79993C53 5.89993 53.2 5.99995 53.3 6.09995C53.5 6.19995 53.6 6.39995 53.7 6.59995C53.7 6.69995 53.8 6.89995 53.8 7.19995ZM53 7.19995C53 7.09995 53 6.89993 52.9 6.79993C52.8 6.69993 52.8 6.59994 52.7 6.49994C52.6 6.39994 52.5 6.29993 52.4 6.29993C52.3 6.19993 52.2 6.19995 52 6.19995C51.9 6.19995 51.7 6.19993 51.6 6.29993C51.5 6.39993 51.4 6.39994 51.3 6.49994C51.2 6.59994 51.1 6.69993 51.1 6.79993C51 6.89993 51 6.99995 51 7.19995C51 7.39995 51 7.49995 51.1 7.59995C51.2 7.69995 51.2 7.79993 51.3 7.89993C51.4 7.99993 51.5 8.09995 51.6 8.09995C51.7 8.19995 51.8 8.19995 52 8.19995C52.1 8.19995 52.3 8.19995 52.4 8.09995C52.5 7.99995 52.6 7.99993 52.7 7.89993C52.8 7.79993 52.9 7.69995 52.9 7.59995C53 7.39995 53 7.29995 53 7.19995ZM54.5 5.29993H55.2V11.2H54.5V5.29993Z" fill="#3E3A39"/>
<path d="M59.5 6.89993C59.5 7.09993 59.5 7.29994 59.4 7.49994C59.3 7.69994 59.2 7.89994 59 7.99994C58.9 8.09994 58.7 8.29993 58.5 8.29993C58.3 8.39993 58.1 8.39993 57.9 8.39993C57.7 8.39993 57.5 8.39993 57.3 8.29993C57.1 8.19993 56.9 8.09994 56.8 7.99994C56.7 7.89994 56.5 7.69994 56.4 7.49994C56.3 7.29994 56.3 7.09993 56.3 6.89993C56.3 6.69993 56.3 6.49993 56.4 6.29993C56.5 6.09993 56.6 5.89993 56.8 5.79993C56.9 5.69993 57.1 5.49994 57.3 5.49994C57.5 5.39994 57.7 5.39993 57.9 5.39993C58.1 5.39993 58.3 5.39994 58.5 5.49994C58.7 5.59994 58.9 5.69993 59 5.79993C59.1 5.89993 59.3 6.09993 59.4 6.29993C59.5 6.49993 59.5 6.69993 59.5 6.89993ZM56.5 8.99994H61.2V11.2H60.5V9.69995H56.6V8.99994H56.5ZM58.8 6.89993C58.8 6.79993 58.8 6.69994 58.7 6.49994C58.7 6.39994 58.6 6.29995 58.5 6.19995C58.4 6.09995 58.3 6.09994 58.2 5.99994C58.1 5.99994 58 5.89993 57.8 5.89993C57.7 5.89993 57.6 5.89994 57.4 5.99994C57.3 5.99994 57.2 6.09995 57.1 6.19995C57 6.29995 57 6.39994 56.9 6.49994C56.9 6.59994 56.8 6.69993 56.8 6.89993C56.8 7.09993 56.8 7.09993 56.9 7.29993C56.9 7.39993 57 7.49995 57.1 7.59995C57.2 7.69995 57.3 7.69993 57.4 7.79993C57.5 7.89993 57.6 7.89993 57.8 7.89993C57.9 7.89993 58 7.89993 58.2 7.79993C58.3 7.79993 58.4 7.69995 58.5 7.59995C58.6 7.49995 58.6 7.39993 58.7 7.29993C58.8 7.09993 58.8 6.99993 58.8 6.89993ZM61.2 8.59995H60.5V5.29993H61.2V5.89993H62V6.49994H61.2V7.19995H62V7.79993H61.2V8.59995Z" fill="#3E3A39"/>
<path d="M64.9 9.09991V8.59991H62.6V7.99991H68V8.59991H65.6V9.09991H67.5V11.0999H62.9V9.09991H64.9ZM62.9 5.3999H67.6V5.99991H66.8V6.8999H67.6V7.49991H62.9V6.8999H63.7V5.99991H62.9V5.3999ZM66.9 9.7999H63.8V10.4999H66.9V9.7999ZM66.2 5.99991H64.5V6.8999H66.2V5.99991Z" fill="#3E3A39"/>
<path d="M72 6.89993C72 7.09993 72 7.29994 71.9 7.49994C71.8 7.69994 71.7 7.89994 71.5 7.99994C71.3 8.09994 71.2 8.29993 71 8.29993C70.8 8.39993 70.6 8.39993 70.4 8.39993C70.2 8.39993 70 8.39993 69.8 8.29993C69.6 8.19993 69.4 8.09994 69.3 7.99994C69.1 7.89994 69 7.69994 68.9 7.49994C68.8 7.29994 68.8 7.09993 68.8 6.89993C68.8 6.69993 68.8 6.49993 68.9 6.29993C69 6.09993 69.1 5.89993 69.3 5.79993C69.5 5.69993 69.6 5.49994 69.8 5.49994C70 5.39994 70.2 5.39993 70.4 5.39993C70.6 5.39993 70.8 5.39994 71 5.49994C71.2 5.59994 71.4 5.69993 71.5 5.79993C71.7 5.89993 71.8 6.09993 71.9 6.29993C71.9 6.49993 72 6.69993 72 6.89993ZM69.7 9.09995V10.3999H73.7V11.0999H69V9.09995H69.7ZM71.3 6.99994C71.3 6.89994 71.3 6.69995 71.2 6.59995C71.1 6.49995 71.1 6.39993 71 6.29993C70.9 6.19993 70.8 6.09995 70.7 6.09995C70.6 5.99995 70.5 5.99994 70.3 5.99994C70.1 5.99994 70 5.99995 69.9 6.09995C69.8 6.19995 69.7 6.19993 69.6 6.29993C69.5 6.39993 69.4 6.49995 69.4 6.59995C69.3 6.69995 69.3 6.79994 69.3 6.99994C69.3 7.09994 69.3 7.29993 69.4 7.39993C69.5 7.49993 69.5 7.59995 69.6 7.69995C69.7 7.79995 69.8 7.89993 69.9 7.89993C70 7.99993 70.1 7.99994 70.3 7.99994C70.5 7.99994 70.6 7.99993 70.7 7.89993C70.8 7.79993 70.9 7.79995 71 7.69995C71.1 7.59995 71.2 7.49993 71.2 7.39993C71.3 7.19993 71.3 7.09994 71.3 6.99994ZM73.6 9.09995H72.9V5.29993H73.6V6.59995H74.4V7.29993H73.6V9.09995Z" fill="#3E3A39"/>
<path d="M75 6.09995V5.49994H78.4V6.09995H77L78.5 8.29993L77.9 8.69995L76.7 6.89993L75.5 8.69995L74.9 8.29993L76.4 5.99994H75V6.09995ZM75.4 11.0999V9.09995H76.1V10.3999H80.2V11.0999H75.4ZM79.4 9.09995V7.39993H78.3V6.69995H79.4V5.29993H80.1V9.09995H79.4Z" fill="#3E3A39"/>
<path d="M82.5 5.89993V5.29993H83.3V5.89993H84.7V6.49994H83.2L84.8 10.0999L84.2 10.3999L82.9 7.39993L81.6 10.4999L81 10.2L82.6 6.49994H81V5.89993H82.5ZM85.6 8.29993H84.5V7.59995H85.6V5.19995H86.3V11.0999H85.6V8.29993Z" fill="#3E3A39"/>
<path d="M40.5 17.4L43.2 21.5L42.3 22.1L40.5 19.3L38.7 22.2L37.8 21.6L40.5 17.4ZM38.6 22.8H45.4V26H44.3V23.8H38.5V22.8H38.6ZM44.4 17.5H45.5V22.3H44.4V17.5Z" fill="#3E3A39"/>
<path d="M50.3 23V22.3H46.9V21.4H54.8V22.3H51.4V23H54.2V25.9H47.6V23H50.3ZM47.4 17.6H54.2V18.5H53.1V19.8H54.2V20.7H47.4V19.8H48.5V18.5H47.4V17.6ZM53.1 24H48.6V25H53.1V24ZM52.1 18.5H49.6V19.8H52.1V18.5Z" fill="#3E3A39"/>
<path d="M61.6 24.1V25H55.9V24.1H61.6ZM61.1 20.2C61.1 20.5 61 20.8 60.9 21.1C60.8 21.4 60.6 21.6 60.4 21.9C60.2 22.1 59.9 22.3 59.6 22.4C59.3 22.5 59 22.6 58.7 22.6C58.4 22.6 58 22.5 57.8 22.4C57.5 22.3 57.2 22.1 57 21.9C56.8 21.7 56.6 21.4 56.5 21.1C56.4 20.8 56.3 20.5 56.3 20.2C56.3 19.9 56.4 19.6 56.5 19.3C56.6 19 56.8 18.8 57 18.5C57.2 18.3 57.5 18.1 57.8 18C58.1 17.9 58.4 17.8 58.7 17.8C59 17.8 59.3 17.9 59.6 18C59.9 18.1 60.2 18.3 60.4 18.5C60.6 18.7 60.8 19 60.9 19.3C61 19.6 61.1 19.9 61.1 20.2ZM60 20.2C60 20 60 19.8 59.9 19.7C59.8 19.5 59.7 19.4 59.6 19.2C59.5 19.1 59.3 19 59.1 18.9C58.9 18.8 58.7 18.8 58.6 18.8C58.4 18.8 58.2 18.8 58.1 18.9C57.9 19 57.8 19.1 57.6 19.2C57.5 19.3 57.4 19.5 57.3 19.7C57.2 19.9 57.2 20.1 57.2 20.2C57.2 20.4 57.2 20.6 57.3 20.7C57.4 20.9 57.5 21 57.6 21.2C57.7 21.3 57.9 21.4 58.1 21.5C58.3 21.6 58.5 21.6 58.6 21.6C58.8 21.6 59 21.6 59.1 21.5C59.3 21.4 59.4 21.3 59.6 21.2C59.7 21.1 59.8 20.9 59.9 20.7C60 20.6 60 20.4 60 20.2ZM62.2 17.5H63.3V26.1H62.2V17.5Z" fill="#3E3A39"/>
<path d="M69.4 19.8C69.4 20.1 69.3 20.4 69.2 20.7C69.1 21 68.9 21.2 68.7 21.4C68.5 21.6 68.2 21.8 67.9 21.9C67.6 22 67.3 22.1 67 22.1C66.7 22.1 66.4 22 66.1 21.9C65.8 21.8 65.6 21.6 65.3 21.4C65.1 21.2 64.9 21 64.8 20.7C64.7 20.4 64.6 20.1 64.6 19.8C64.6 19.5 64.7 19.2 64.8 18.9C64.9 18.6 65.1 18.4 65.3 18.2C65.5 18 65.8 17.8 66.1 17.7C66.4 17.6 66.7 17.5 67 17.5C67.3 17.5 67.6 17.6 67.9 17.7C68.2 17.8 68.4 18 68.7 18.2C68.9 18.4 69.1 18.6 69.2 18.9C69.3 19.2 69.4 19.5 69.4 19.8ZM65.1 22.8H71.8V26H70.7V23.8H65V22.8H65.1ZM68.4 19.8C68.4 19.6 68.4 19.4 68.3 19.3C68.2 19.1 68.1 19 68 18.9C67.9 18.8 67.7 18.7 67.6 18.6C67.4 18.5 67.3 18.5 67.1 18.5C66.9 18.5 66.7 18.5 66.6 18.6C66.4 18.7 66.3 18.8 66.2 18.9C66.1 19 66 19.2 65.9 19.3C65.8 19.5 65.8 19.6 65.8 19.8C65.8 20 65.8 20.2 65.9 20.3C66 20.5 66.1 20.6 66.2 20.7C66.3 20.8 66.5 20.9 66.6 21C66.8 21.1 66.9 21.1 67.1 21.1C67.3 21.1 67.5 21.1 67.6 21C67.8 20.9 67.9 20.8 68 20.7C68.1 20.6 68.2 20.4 68.3 20.3C68.3 20.2 68.4 20 68.4 19.8ZM71.8 22.3H70.7V17.5H71.8V18.4H73V19.3H71.8V20.3H73V21.2H71.8V22.3Z" fill="#3E3A39"/>
<path d="M77.2 23V22.3H73.8V21.4H81.7V22.3H78.3V23H81.1V25.9H74.5V23H77.2ZM74.4 17.6H81.2V18.5H80.1V19.8H81.2V20.7H74.4V19.8H75.5V18.5H74.4V17.6ZM80 24H75.5V25H80V24ZM79 18.5H76.5V19.8H79V18.5Z" fill="#3E3A39"/>
<path d="M87.5 19.9C87.5 20.2 87.4 20.5 87.3 20.8C87.2 21.1 87 21.3 86.8 21.5C86.6 21.7 86.3 21.9 86 22C85.7 22.1 85.4 22.2 85.1 22.2C84.8 22.2 84.5 22.1 84.2 22C83.9 21.9 83.7 21.7 83.4 21.5C83.2 21.3 83 21 82.9 20.8C82.8 20.5 82.7 20.2 82.7 19.9C82.7 19.6 82.8 19.3 82.9 19C83 18.7 83.2 18.5 83.4 18.3C83.6 18.1 83.9 17.9 84.2 17.8C84.5 17.7 84.8 17.6 85.1 17.6C85.4 17.6 85.7 17.7 86 17.8C86.3 17.9 86.5 18.1 86.8 18.3C87 18.5 87.2 18.8 87.3 19C87.4 19.3 87.5 19.6 87.5 19.9ZM84.2 23V24.9H90V25.8H83.2V23H84.2ZM86.4 19.9C86.4 19.7 86.4 19.5 86.3 19.4C86.2 19.2 86.1 19.1 86 18.9C85.9 18.8 85.7 18.7 85.6 18.6C85.4 18.5 85.3 18.5 85.1 18.5C84.9 18.5 84.7 18.5 84.6 18.6C84.4 18.7 84.3 18.8 84.1 18.9C84 19 83.9 19.2 83.8 19.4C83.7 19.6 83.7 19.8 83.7 19.9C83.7 20.1 83.7 20.3 83.8 20.4C83.9 20.6 84 20.7 84.1 20.8C84.2 20.9 84.4 21 84.6 21.1C84.8 21.2 85 21.2 85.1 21.2C85.3 21.2 85.5 21.2 85.6 21.1C85.8 21 85.9 20.9 86 20.8C86.1 20.7 86.2 20.5 86.3 20.4C86.4 20.3 86.4 20.1 86.4 19.9ZM89.7 23H88.6V17.5H89.7V19.4H90.9V20.5H89.7V23Z" fill="#3E3A39"/>
<path d="M91.7 18.6V17.7H96.6V18.6H94.5L96.7 21.8L95.9 22.3L94.2 19.7L92.5 22.3L91.7 21.7L93.9 18.4H91.7V18.6ZM92.3 25.9V23H93.4V24.9H99.4V25.8H92.3V25.9ZM98.2 23V20.5H96.6V19.6H98.2V17.6H99.3V23.1H98.2V23Z" fill="#3E3A39"/>
<path d="M105.9 21.8H100.8V20.9H101.6V18.6H100.8V17.7H105.9V18.6H105.1V20.9H105.9V21.8ZM104.1 18.6H102.6V20.9H104.1V18.6ZM107.5 24.2C107.5 24.5 107.4 24.8 107.3 25C107.2 25.3 107 25.5 106.8 25.7C106.6 25.9 106.4 26 106.1 26.2C105.8 26.3 105.5 26.4 105.2 26.4C104.9 26.4 104.6 26.3 104.3 26.2C104 26.1 103.8 25.9 103.6 25.7C103.4 25.5 103.2 25.3 103.1 25C103 24.7 102.9 24.5 102.9 24.2C102.9 23.9 103 23.6 103.1 23.4C103.2 23.1 103.4 22.9 103.6 22.7C103.8 22.5 104 22.4 104.3 22.2C104.6 22.1 104.9 22 105.2 22C105.5 22 105.8 22.1 106.1 22.2C106.4 22.3 106.6 22.5 106.8 22.7C107 22.9 107.2 23.1 107.3 23.4C107.5 23.7 107.5 23.9 107.5 24.2ZM106.5 24.2C106.5 23.9 106.4 23.6 106.1 23.4C105.9 23.2 105.6 23.1 105.3 23.1C105 23.1 104.7 23.2 104.5 23.4C104.3 23.6 104.2 23.9 104.2 24.2C104.2 24.5 104.3 24.8 104.5 25C104.7 25.2 105 25.3 105.3 25.3C105.6 25.3 105.9 25.2 106.1 25C106.4 24.8 106.5 24.5 106.5 24.2ZM107.2 17.5H108.3V22H107.2V20.9H106V20.1H107.2V19.3H106V18.5H107.2V17.5Z" fill="#3E3A39"/>
<path d="M113.7 24.9H112.6V18.9H109.4V17.9H113.7V24.9ZM116.7 20.8H117.9V21.9H116.7V26.1H115.6V17.5H116.7V20.8Z" fill="#3E3A39"/>
<path d="M124.3 22.6H122V23.9H120.9V22.6H118.5V21.7H124.2V22.6H124.3ZM119.2 25.9V23.5H120.3V25H126.2V25.9H119.2ZM123.6 19.4C123.6 19.7 123.5 19.9 123.4 20.2C123.3 20.4 123.1 20.7 122.9 20.8C122.7 21 122.5 21.1 122.2 21.2C121.9 21.3 121.7 21.4 121.4 21.4C121.1 21.4 120.8 21.3 120.6 21.2C120.3 21.1 120.1 21 119.9 20.8C119.7 20.6 119.6 20.4 119.4 20.2C119.3 20 119.2 19.7 119.2 19.4C119.2 19.1 119.3 18.9 119.4 18.6C119.5 18.4 119.7 18.1 119.9 18C120.1 17.8 120.3 17.7 120.6 17.6C120.9 17.5 121.1 17.4 121.4 17.4C121.7 17.4 122 17.5 122.2 17.6C122.5 17.7 122.7 17.8 122.9 18C123.1 18.2 123.2 18.4 123.4 18.6C123.5 18.8 123.6 19.1 123.6 19.4ZM122.6 19.4C122.6 19.1 122.5 18.8 122.3 18.6C122.1 18.4 121.8 18.3 121.5 18.3C121.2 18.3 120.9 18.4 120.7 18.6C120.5 18.8 120.4 19.1 120.4 19.4C120.4 19.7 120.5 20 120.7 20.2C120.9 20.4 121.2 20.5 121.5 20.5C121.8 20.5 122.1 20.4 122.3 20.2C122.4 19.9 122.6 19.7 122.6 19.4ZM125 17.5H126.1V24H125V20.8H123.8V19.9H125V17.5Z" fill="#3E3A39"/>
<path d="M127.3 13.9H37.7V14.4H127.3V13.9Z" fill="#3E3A39"/>
<path d="M16 30.6C24.3395 30.6 31.1 23.8395 31.1 15.5C31.1 7.16047 24.3395 0.399963 16 0.399963C7.6605 0.399963 0.900024 7.16047 0.900024 15.5C0.900024 23.8395 7.6605 30.6 16 30.6Z" fill="white"/>
<path d="M22.8 14.5999C20.5 12.9999 17.4 13.6999 15.9 16.0999C14.6 18.0999 12.6 18.3999 11.8 18.3999C9.30005 18.3999 7.59998 16.5999 7.09998 14.7999C7.09998 14.7999 7.09998 14.8 7.09998 14.7C7.09998 14.7 7.09998 14.6999 7.09998 14.5999C6.89998 13.7999 6.90002 13.5 6.90002 12.7C6.90002 8.29995 11.4 3.49994 17.8 3.49994C24.4 3.49994 28.2 8.49993 29.2 11.2999V11.2C27.3 5.69995 22.1 1.79993 16 1.79993C8.3 1.79993 2.09998 7.99995 2.09998 15.7C2.09998 22.6 7.10002 28.4999 13.9 28.4999C19.4 28.4999 23.1 25.4 24.8 21.2C25.6 18.7 24.9 15.9999 22.8 14.5999Z" fill="#003668"/>
<path d="M29.2 11.4999C28.4 8.79991 24.6 3.3999 17.7 3.3999C11.2 3.3999 6.80005 8.29991 6.80005 12.5999C6.80005 13.3999 6.8 13.7999 7 14.4999C6.9 14.1999 6.90002 13.7999 6.90002 13.4999C6.90002 8.89991 11.5 5.7999 16.1 5.7999C22.4 5.7999 27.6 10.8999 27.6 17.2999C27.6 22.2999 24.7 26.5999 20.6 28.5999C26 26.6999 29.8 21.4999 29.8 15.4999C29.8 14.1999 29.6 12.8999 29.2 11.4999Z" fill="#E6002D"/>
</svg>
