<svg xmlns="http://www.w3.org/2000/svg" viewBox="0 0 485.204 97.49"><defs><style>.cls-1{fill:#575556;}.cls-2{fill:#003763;}.cls-3{fill:#e4022d;}</style></defs><g id="레이어_2" data-name="레이어 2"><g id="레이어_2-2" data-name="레이어 2"><path class="cls-1" d="M154.2,41.491v4.351H128.579V41.491h8.052V28.615H141.5V41.491Zm-7.3-4.57V17.014H130.039V12.707h21.68V36.921Zm15.221,12.832h-4.911v-39.2h4.911V27.077h5.044v4.614h-5.044Z"/><path class="cls-1" d="M191.463,13.015v4.218H168.456V13.015h9.026V9.763h5.177v3.252Zm-21.37,23.379h31.06V49.4h-4.867V40.7H170.093ZM189.207,26.33a7.484,7.484,0,0,1-.73,3.252,9.024,9.024,0,0,1-1.925,2.681,10.9,10.9,0,0,1-2.92,1.78,9.128,9.128,0,0,1-3.539.681,9.287,9.287,0,0,1-3.562-.681,10.11,10.11,0,0,1-2.9-1.78,8.652,8.652,0,0,1-1.969-2.681,7.484,7.484,0,0,1-.73-3.252,7.348,7.348,0,0,1,.73-3.23,8.75,8.75,0,0,1,1.969-2.659,10.107,10.107,0,0,1,2.9-1.779,9.287,9.287,0,0,1,3.562-.682,9.128,9.128,0,0,1,3.539.682,10.9,10.9,0,0,1,2.92,1.779,9.133,9.133,0,0,1,1.925,2.659A7.348,7.348,0,0,1,189.207,26.33Zm-4.69-.044a4.027,4.027,0,0,0-1.305-3.011,4.353,4.353,0,0,0-3.119-1.252,4.274,4.274,0,0,0-3.1,1.252,4.058,4.058,0,0,0-1.284,3.011A4.124,4.124,0,0,0,177,29.318a4.232,4.232,0,0,0,3.1,1.275,4.309,4.309,0,0,0,3.119-1.275A4.092,4.092,0,0,0,184.517,26.286Zm16.636,7.91h-4.867V10.554h4.867v9.184h5.663v4.79h-5.663Z"/><path class="cls-1" d="M228.951,44.611H224.04V17.365H208.908V12.971h20.043Zm9.867-34.057h4.911v39.2h-4.911Z"/><path class="cls-1" d="M264.758,32.79V29.758H249.1v-4h36.281v4H269.669V32.79h12.787v9.932H256.838V45.1h26.149v4H252.015V38.9h25.574V36.657H252.015V32.79Zm2.478-17.622-13.8,9.712-2.92-3.384L267.236,9.807,283.96,21.5l-2.92,3.384Z"/><path class="cls-1" d="M288.928,15.871V11.7h22.654v4.175h-9.646L311.98,28.044l-3.407,2.812-8.141-10.063-8.008,10.723-3.54-2.813,10.044-12.832ZM320.3,41.4a8.593,8.593,0,0,1-.819,3.714,10.13,10.13,0,0,1-5.442,5.141,10.751,10.751,0,0,1-7.986,0,10.161,10.161,0,0,1-3.274-2.087,10.274,10.274,0,0,1-2.19-3.054,8.84,8.84,0,0,1,0-7.428,10.27,10.27,0,0,1,2.19-3.053,10.161,10.161,0,0,1,3.274-2.087,10.738,10.738,0,0,1,7.986,0,10.133,10.133,0,0,1,5.442,5.14A8.6,8.6,0,0,1,320.3,41.4Zm-4.823-.044a5.11,5.11,0,0,0-1.615-3.779A5.335,5.335,0,0,0,309.989,36a5.209,5.209,0,0,0-3.8,1.582,5.3,5.3,0,0,0,0,7.58,5.249,5.249,0,0,0,3.8,1.561,5.376,5.376,0,0,0,3.871-1.561A5.084,5.084,0,0,0,315.475,41.359Zm3.274-10.019V22.858H311.4V18.64h7.344V10.554h4.912V31.34Z"/><path class="cls-1" d="M357.52,18.244v-6.02h4.867V34.636H349.6v7.91h15.707v4.307H329.026V42.546h15.663v-7.91H331.946V12.224h4.823v6.02Zm0,12.129v-7.91H336.769v7.91Z"/><path class="cls-1" d="M371.912,26.858V10.949h30.4V14.9h-25.53V16.97h25.353v3.823H376.779v2.2h25.662v3.868H389.566v2.5h15.707v4H368.992v-4h15.663v-2.5Zm24.866,16a7.731,7.731,0,0,1-.73,3.318,8.8,8.8,0,0,1-2.013,2.746,11.014,11.014,0,0,1-3.12,1.89,10.468,10.468,0,0,1-7.543,0,10.317,10.317,0,0,1-3.1-1.89,8.488,8.488,0,0,1-2.058-2.746,7.956,7.956,0,0,1,0-6.658,9.051,9.051,0,0,1,2.058-2.769,9.988,9.988,0,0,1,3.1-1.868,10.784,10.784,0,0,1,7.543,0,10.643,10.643,0,0,1,3.12,1.868,9.406,9.406,0,0,1,2.013,2.769A7.681,7.681,0,0,1,396.778,42.854Zm-4.867-.044a4.406,4.406,0,0,0-1.416-3.3,4.682,4.682,0,0,0-3.362-1.363,4.755,4.755,0,0,0-3.385,1.363,4.373,4.373,0,0,0-1.438,3.3,4.439,4.439,0,0,0,1.438,3.317,4.714,4.714,0,0,0,3.385,1.385,4.642,4.642,0,0,0,3.362-1.385A4.473,4.473,0,0,0,391.911,42.81Z"/><path class="cls-1" d="M420.815,10.334l12.433,20-3.981,2.461-8.452-14.062L412.409,33.1l-4.071-2.461Zm-9.247,38.628v-13.1h4.867v8.789h27.476v4.307Zm27.077-13.316V10.554h4.913V35.646Z"/><path class="cls-1" d="M448.923,35.339H485.2v4.307H469.5V49.753h-4.911V39.646H448.923Zm7.743-19.16h20.751V11.213h4.867V30.065H451.843V11.213h4.823ZM477.417,20.4H456.666V25.8h20.751Z"/><path class="cls-1" d="M143.332,65.6V80.578h-2.423V68.525l-3.936,12.053h-2.337L130.7,68.525V80.578h-2.423V65.6H132l3.807,11.666L139.611,65.6Z"/><path class="cls-1" d="M149.081,66.463a1.454,1.454,0,0,1-.465,1.063,1.574,1.574,0,0,1-2.228,0,1.454,1.454,0,0,1-.465-1.063,1.507,1.507,0,0,1,.465-1.107,1.576,1.576,0,0,1,2.228,0A1.507,1.507,0,0,1,149.081,66.463Zm-2.79,14.115V69.814h2.465V80.578Z"/><path class="cls-1" d="M154.159,75.164v5.414h-2.445V69.814h2.358v1.44a3.315,3.315,0,0,1,1.255-1.225,3.506,3.506,0,0,1,1.774-.472,3.926,3.926,0,0,1,3.082,1.3,5.032,5.032,0,0,1,1.157,3.47v6.252h-2.466V74.949a4.6,4.6,0,0,0-.562-2.546,1.952,1.952,0,0,0-1.73-.827,2.046,2.046,0,0,0-1.18.4,2.529,2.529,0,0,0-.876,1.085A5.071,5.071,0,0,0,154.159,75.164Z"/><path class="cls-1" d="M167,66.463a1.456,1.456,0,0,1-.466,1.063,1.574,1.574,0,0,1-2.228,0,1.454,1.454,0,0,1-.465-1.063,1.507,1.507,0,0,1,.465-1.107,1.576,1.576,0,0,1,2.228,0A1.508,1.508,0,0,1,167,66.463Zm-2.791,14.115V69.814h2.466V80.578Z"/><path class="cls-1" d="M168.641,78.58l1.536-1.568a5.353,5.353,0,0,0,1.427,1.375,3.116,3.116,0,0,0,1.623.451,2.723,2.723,0,0,0,1.4-.333,1,1,0,0,0,.573-.892.96.96,0,0,0-.551-.87,9.2,9.2,0,0,0-1.309-.591q-.887-.278-1.817-.623a4.125,4.125,0,0,1-1.838-1.16,2.463,2.463,0,0,1-.584-1.611,2.758,2.758,0,0,1,1.254-2.267,5.347,5.347,0,0,1,5.927-.075,3.357,3.357,0,0,1,.93,1.117l-1.514,1.461a2.94,2.94,0,0,0-.714-.838,2.633,2.633,0,0,0-1.8-.623,1.922,1.922,0,0,0-1.093.312.891.891,0,0,0-.465.741.932.932,0,0,0,.519.8,6.525,6.525,0,0,0,1.536.623q.367.108.844.258a5.908,5.908,0,0,1,2.39,1.332,2.676,2.676,0,0,1,.811,1.955,2.841,2.841,0,0,1-1.3,2.309,5.34,5.34,0,0,1-3.309.978,5.723,5.723,0,0,1-2.985-.773A4.589,4.589,0,0,1,168.641,78.58Z"/><path class="cls-1" d="M182.783,66.355v3.459h2.358v1.977h-2.358V77.27a1.27,1.27,0,0,0,.378,1.063,1.73,1.73,0,0,0,1.071.29h.909v1.955h-1.493a3.578,3.578,0,0,1-2.553-.773,3.055,3.055,0,0,1-.8-2.3V71.791h-1.86V69.814h1.86V66.355Z"/><path class="cls-1" d="M187.147,80.578V69.814h2.314v1.612a3.837,3.837,0,0,1,1.32-1.225,4.165,4.165,0,0,1,2.185-.558h.173v2.191h-.26a3.274,3.274,0,0,0-2.444.924,4.014,4.014,0,0,0-.844,2.814v5.006Z"/><path class="cls-1" d="M198.26,80.17,194,69.814h2.552l2.942,7.348,2.92-7.348h2.531l-6.035,14.954H196.4Z"/><path class="cls-1" d="M216.9,80.836a5.618,5.618,0,0,1-4.056-1.622,5.641,5.641,0,0,1,0-8.025,5.869,5.869,0,0,1,8.122,0,5.665,5.665,0,0,1,0,8.025A5.6,5.6,0,0,1,216.9,80.836Zm0-2.02a3.056,3.056,0,0,0,2.3-1.02,3.624,3.624,0,0,0,.962-2.589,3.675,3.675,0,0,0-.962-2.589,3.044,3.044,0,0,0-4.586,0,3.671,3.671,0,0,0-.963,2.589,3.621,3.621,0,0,0,.963,2.589A3.03,3.03,0,0,0,216.9,78.816Z"/><path class="cls-1" d="M225.261,67.666a2.944,2.944,0,0,1,.855-2.3,3.785,3.785,0,0,1,2.606-.773h1.19v1.955H229.2a1.73,1.73,0,0,0-1.071.29,1.27,1.27,0,0,0-.378,1.063v1.912h2.163v1.977h-2.163v8.787h-2.488V71.791H223.4V69.814h1.86Z"/><path class="cls-1" d="M237.559,77.549l1.666-1.676a4.9,4.9,0,0,0,1.687,2.084,4,4,0,0,0,2.228.731,3.322,3.322,0,0,0,2.033-.624,1.862,1.862,0,0,0,.844-1.589,1.643,1.643,0,0,0-.855-1.429,10.435,10.435,0,0,0-1.849-.935q-1-.365-2.077-.8a5.139,5.139,0,0,1-2.477-1.632,3.525,3.525,0,0,1-.746-2.127,3.743,3.743,0,0,1,1.493-2.976,5.546,5.546,0,0,1,3.656-1.235,5.678,5.678,0,0,1,3.7,1.16,3.033,3.033,0,0,1,1.017,1.246l-1.514,1.59a3.467,3.467,0,0,0-.714-.881,3.8,3.8,0,0,0-2.617-.988,2.777,2.777,0,0,0-1.677.526,1.656,1.656,0,0,0-.725,1.407q0,1.333,2.942,2.364.541.173,1.125.386a8.075,8.075,0,0,1,2.953,1.773,3.5,3.5,0,0,1,.984,2.524,3.891,3.891,0,0,1-1.536,3.072,5.765,5.765,0,0,1-3.915,1.311,6.346,6.346,0,0,1-3.656-.988A5.313,5.313,0,0,1,237.559,77.549Z"/><path class="cls-1" d="M250.078,75.207a5.288,5.288,0,0,1,1.763-3.985,6.246,6.246,0,0,1,4.467-1.665,6.645,6.645,0,0,1,3.98,1.353l-.8,1.912a5.248,5.248,0,0,0-3.179-1.246,3.636,3.636,0,0,0-2.7,1.053,3.536,3.536,0,0,0-1.038,2.578,3.5,3.5,0,0,0,1.038,2.567,3.648,3.648,0,0,0,2.7,1.042,5.416,5.416,0,0,0,3.223-1.224l.8,1.912a6.583,6.583,0,0,1-4.023,1.332,6.268,6.268,0,0,1-4.467-1.654A5.257,5.257,0,0,1,250.078,75.207Z"/><path class="cls-1" d="M265.344,66.463a1.454,1.454,0,0,1-.465,1.063,1.574,1.574,0,0,1-2.228,0,1.454,1.454,0,0,1-.465-1.063,1.507,1.507,0,0,1,.465-1.107,1.576,1.576,0,0,1,2.228,0A1.507,1.507,0,0,1,265.344,66.463Zm-2.79,14.115V69.814h2.466V80.578Z"/><path class="cls-1" d="M269.8,76.281a2.9,2.9,0,0,0,.93,1.612,3.923,3.923,0,0,0,2.747.945,5.113,5.113,0,0,0,3.353-1.311l.736,1.8a6.17,6.17,0,0,1-4.154,1.5,6.428,6.428,0,0,1-4.467-1.547,5.2,5.2,0,0,1-1.719-4.06,5.666,5.666,0,0,1,1.525-4.072,5.764,5.764,0,0,1,7.96-.011,5.424,5.424,0,0,1,1.547,3.932,6.415,6.415,0,0,1-.108,1.2Zm-.043-1.933h6.013a2.885,2.885,0,0,0-.887-1.923,3.059,3.059,0,0,0-4.348.075A3.391,3.391,0,0,0,269.752,74.348Z"/><path class="cls-1" d="M282.747,75.164v5.414H280.3V69.814h2.358v1.44a3.315,3.315,0,0,1,1.255-1.225,3.505,3.505,0,0,1,1.773-.472,3.923,3.923,0,0,1,3.082,1.3,5.028,5.028,0,0,1,1.158,3.47v6.252h-2.466V74.949A4.6,4.6,0,0,0,286.9,72.4a1.953,1.953,0,0,0-1.731-.827,2.045,2.045,0,0,0-1.179.4,2.529,2.529,0,0,0-.876,1.085A5.071,5.071,0,0,0,282.747,75.164Z"/><path class="cls-1" d="M291.978,75.207a5.288,5.288,0,0,1,1.763-3.985,6.245,6.245,0,0,1,4.466-1.665,6.64,6.64,0,0,1,3.98,1.353l-.8,1.912a5.248,5.248,0,0,0-3.18-1.246,3.636,3.636,0,0,0-2.7,1.053,3.532,3.532,0,0,0-1.038,2.578,3.492,3.492,0,0,0,1.038,2.567,3.647,3.647,0,0,0,2.7,1.042,5.419,5.419,0,0,0,3.224-1.224l.8,1.912a6.584,6.584,0,0,1-4.024,1.332,6.267,6.267,0,0,1-4.466-1.654A5.257,5.257,0,0,1,291.978,75.207Z"/><path class="cls-1" d="M306.206,76.281a2.9,2.9,0,0,0,.93,1.612,3.923,3.923,0,0,0,2.747.945,5.115,5.115,0,0,0,3.353-1.311l.735,1.8a6.167,6.167,0,0,1-4.153,1.5,6.427,6.427,0,0,1-4.467-1.547,5.2,5.2,0,0,1-1.719-4.06,5.666,5.666,0,0,1,1.525-4.072,5.764,5.764,0,0,1,7.96-.011,5.428,5.428,0,0,1,1.547,3.932,6.329,6.329,0,0,1-.109,1.2Zm-.043-1.933h6.013a2.885,2.885,0,0,0-.887-1.923,3.059,3.059,0,0,0-4.348.075A3.376,3.376,0,0,0,306.163,74.348Z"/><path class="cls-1" d="M327.415,73.639h2.553a1.751,1.751,0,0,0-.822-1.579,4.43,4.43,0,0,0-2.379-.527H326.7a8.09,8.09,0,0,0-3.115.688l-.628-1.912a9.74,9.74,0,0,1,3.764-.752h.044a7.141,7.141,0,0,1,4.185,1.042,3.8,3.8,0,0,1,1.46,3.319v6.66h-2.336V79.4a4.706,4.706,0,0,1-1.7,1.064,5.791,5.791,0,0,1-2.044.376,4.692,4.692,0,0,1-3.148-1.021,3.162,3.162,0,0,1-1.2-2.5,3.243,3.243,0,0,1,1.492-2.729A6.945,6.945,0,0,1,327.415,73.639Zm-.67,5.263a4.183,4.183,0,0,0,1.882-.462,3.408,3.408,0,0,0,1.341-1.063V75.551h-2.185a5.133,5.133,0,0,0-2.6.472,1.579,1.579,0,0,0-.713,1.29,1.366,1.366,0,0,0,.605,1.138A2.733,2.733,0,0,0,326.745,78.9Z"/><path class="cls-1" d="M337.663,75.164v5.414h-2.444V69.814h2.358v1.44a3.319,3.319,0,0,1,1.254-1.225,3.509,3.509,0,0,1,1.774-.472,3.926,3.926,0,0,1,3.082,1.3,5.032,5.032,0,0,1,1.158,3.47v6.252h-2.467V74.949a4.589,4.589,0,0,0-.562-2.546,1.951,1.951,0,0,0-1.73-.827,2.045,2.045,0,0,0-1.179.4,2.514,2.514,0,0,0-.876,1.085A5.054,5.054,0,0,0,337.663,75.164Z"/><path class="cls-1" d="M352.215,69.557a4.293,4.293,0,0,1,3.31,1.547V64.615h2.466V80.578h-2.38V79.225a4.269,4.269,0,0,1-3.4,1.611,4.879,4.879,0,0,1-3.85-1.676,6.065,6.065,0,0,1,0-7.917A4.865,4.865,0,0,1,352.215,69.557ZM355.5,75.9a7.176,7.176,0,0,0,0-1.375,3.377,3.377,0,0,0-.908-2.041,2.848,2.848,0,0,0-2.141-.9,2.709,2.709,0,0,0-2.25,1.042,4.052,4.052,0,0,0-.822,2.589A4,4,0,0,0,350.2,77.8a2.728,2.728,0,0,0,2.25,1.02,2.847,2.847,0,0,0,2.141-.9A3.355,3.355,0,0,0,355.5,75.9Z"/><path class="cls-1" d="M367.282,80.578V65.6h2.531V80.578Z"/><path class="cls-1" d="M380.191,78.73a6.883,6.883,0,0,0,4.305-1.5l1.038,1.826a7.757,7.757,0,0,1-5.343,1.783,7.578,7.578,0,0,1-5.527-2.224,7.875,7.875,0,0,1,0-11.043,7.581,7.581,0,0,1,5.527-2.223,7.477,7.477,0,0,1,5.256,1.8l-1.017,1.827a6.669,6.669,0,0,0-4.239-1.526,4.956,4.956,0,0,0-3.7,1.59,5.706,5.706,0,0,0-1.558,4.061,5.627,5.627,0,0,0,1.558,4.039A4.955,4.955,0,0,0,380.191,78.73Z"/><path class="cls-1" d="M393.856,67.709V80.578h-2.531V67.709h-4.608V65.6h11.745v2.105Z"/><path class="cls-2" d="M75.258,46.527c-8.468-5.756-19.308-3.408-24.995,5.244a17.6,17.6,0,0,1-31.811-4.834h0c-.018-.068-.034-.121-.048-.185s-.045-.147-.058-.225a22.512,22.512,0,0,1-.9-6.988c0-15.767,16.174-33.32,39.477-33.32,23.855,0,37.505,18.162,41.022,28.256-.06-.176-.115-.353-.174-.537A50.243,50.243,0,0,0,0,50.236c0,24.8,17.881,46.033,42.693,46.033,19.791,0,33.092-11.1,39.192-26.386C85.234,61.52,82.861,51.689,75.258,46.527Z"/><path class="cls-3" d="M98.253,35.456C95.322,25.609,81.568,6.219,56.919,6.219c-23.3,0-39.477,17.553-39.477,33.32a22.512,22.512,0,0,0,.9,6.988,14.86,14.86,0,0,1-.462-3.584c0-16.418,16.438-27.8,33.338-27.8a41.424,41.424,0,0,1,41.427,41.42A45.668,45.668,0,0,1,67.327,97.479l.006.011a50.252,50.252,0,0,0,33.129-47.254A49.526,49.526,0,0,0,98.253,35.456Z"/></g></g></svg>