<svg width="115" height="31" viewBox="0 0 115 31" fill="none" xmlns="http://www.w3.org/2000/svg">
<path d="M66.1 27.4999V28.9999C66.1 29.1999 66.1 29.2999 66.2 29.2999C66.3 29.3999 66.4 29.3999 66.5 29.3999C66.5 29.3999 69.1 29.3999 69.2 29.3999V27.4999C69.2 27.4999 66.2 27.4999 66.1 27.4999ZM66.8 28.7999V27.9999H68.5V28.9999H67C66.9 28.9999 66.8 28.8999 66.8 28.7999Z" fill="#808890"/>
<path d="M66.2 24.2999V24.7999H65.3C65.3 24.7999 65.3 25.1999 65.3 25.2999H66.2C66.2 25.9999 65.8 26.4999 65.2 26.7999L65.4 27.2C65.7 27.1 65.9 26.9999 66.1 26.7999C66.3 26.5999 66.5 26.4 66.5 26.2C66.6 26.4 66.8 26.5999 67 26.7999C67.2 26.9999 67.4 27.1 67.6 27.2L67.8 26.7999C67.5 26.6999 67.2 26.4999 67.1 26.2999C66.9 25.9999 66.8 25.6999 66.8 25.3999H67.7C67.7 25.3999 67.7 24.9999 67.7 24.8999H66.8C66.8 24.8999 66.8 24.4999 66.8 24.3999C66.9 24.2999 66.3 24.2999 66.2 24.2999Z" fill="#808890"/>
<path d="M68.5 24.3999V25.5999H67.7C67.7 25.5999 67.7 25.9999 67.7 26.0999H68.5C68.5 26.0999 68.5 27.0999 68.5 27.1999H69.2V24.3999H68.5Z" fill="#808890"/>
<path d="M72.7 24.3999V25.9999C72.7 26.1999 72.7 26.2999 72.6 26.3999C72.5 26.4999 72.4 26.4999 72.1 26.5999C71.9 26.5999 71.6 26.6999 71.2 26.6999C71 26.6999 70.8 26.6999 70.7 26.6999C70.6 26.6999 70.5 26.5999 70.5 26.4999V24.9999H71.9V24.4999H69.8V26.4999C69.8 26.6999 69.8 26.7999 69.9 26.8999C70 26.9999 70.1 27.0999 70.2 27.0999C70.3 27.0999 70.5 27.0999 70.7 27.0999C71.2 27.0999 71.7 27.0999 72 26.9999C72.3 26.8999 72.5 26.7999 72.6 26.6999L72.7 26.5999V27.7999H73.4V26.0999C73.4 26.0999 74.1 26.0999 74.2 26.0999V25.5999H73.4V24.3999H72.7Z" fill="#808890"/>
<path d="M70.5 27.6V28.9C70.5 29 70.5 29.1 70.6 29.2C70.6 29.2 70.7 29.3 70.8 29.3C70.8 29.3 73.5 29.3 73.6 29.3V28.8H71.4C71.3 28.8 71.2 28.7 71.2 28.6V27.6C71.1 27.6 70.5 27.6 70.5 27.6Z" fill="#808890"/>
<path d="M79.5 24.4999V24.9999H82V25.7H79.5V26.9999C79.5 27.0999 79.5 27.1999 79.6 27.2999C79.7 27.3999 79.8 27.3999 79.9 27.3999H80.1V28.2999H79V28.7999C79 28.7999 83.2 28.7999 83.3 28.7999V28.2999H82.2V27.3999H82.8V26.8999H80.4C80.3 26.8999 80.2 26.9 80.2 26.7V26.2H82.7V24.5999C82.6 24.4999 79.5 24.4999 79.5 24.4999ZM80.7 28.2V27.2999H81.4V28.2H80.7Z" fill="#808890"/>
<path d="M86.4 24.3999V27.7999H87.1V25.9999C87.1 25.9999 87.8 25.9999 87.9 25.9999V25.4999H87.1C87.1 25.4999 87.1 24.3999 87.1 24.2999C87.1 24.3999 86.5 24.3999 86.4 24.3999Z" fill="#808890"/>
<path d="M84.3 24.4999V24.8999C84.3 25.3999 84.2 25.7999 84.1 26.0999C83.9 26.3999 83.7 26.6999 83.3 26.8999L83.6 27.2999C83.8 27.1999 84.1 26.9999 84.3 26.7999C84.5 26.5999 84.7 26.3999 84.7 26.1999C84.8 26.3999 84.9 26.5999 85.1 26.7999C85.3 26.9999 85.5 27.1999 85.7 27.1999C85.7 27.1999 85.9 26.7999 86 26.7999C85.3 26.3999 85 25.7999 85 24.7999C85 24.7999 85 24.4999 85 24.3999C85 24.4999 84.4 24.4999 84.3 24.4999Z" fill="#808890"/>
<path d="M84.2 27.6V28.9C84.2 29 84.2 29.1 84.3 29.2C84.3 29.2 84.4 29.3 84.6 29.3C84.6 29.3 87.3 29.3 87.4 29.3V28.8H85.2C85.1 28.8 85 28.7 85 28.6V27.6C84.9 27.6 84.2 27.6 84.2 27.6Z" fill="#808890"/>
<path d="M56.6 25.8999C56.6 26.5999 57.1 27.1999 57.7 27.3999V27.9999H55.9V28.4999C55.9 28.4999 60.2 28.4999 60.3 28.4999V27.9999H58.5V27.3999C59.2 27.1999 59.6 26.5999 59.6 25.8999C59.6 25.0999 58.9 24.3999 58.1 24.3999C57.3 24.3999 56.6 25.0999 56.6 25.8999ZM57.3 25.8999C57.3 25.3999 57.7 24.9999 58.1 24.9999C58.5 24.9999 58.9 25.3999 58.9 25.8999C58.9 26.3999 58.5 26.7999 58.1 26.7999C57.7 26.7999 57.3 26.3999 57.3 25.8999Z" fill="#808890"/>
<path d="M62.3 24.3999C62.3 25.0999 61.8 25.5999 60.8 25.7999C60.8 25.7999 61 26.1999 61 26.2999C61.4 26.1999 61.7 26.0999 62 25.8999C62.3 25.6999 62.5 25.4999 62.6 25.2999C62.7 25.4999 62.9 25.6999 63.3 25.8999C63.6 26.0999 63.9 26.2 64.3 26.2C64.3 26.2 64.5 25.8 64.5 25.7C64 25.6 63.7 25.4 63.4 25.2C63.1 25 63 24.6999 63 24.2999C63 24.3999 62.4 24.3999 62.3 24.3999Z" fill="#808890"/>
<path d="M62.3 26.1V26.8H60.5C60.5 26.8 60.5 27.2 60.5 27.3C60.5 27.3 64.8 27.3 64.9 27.3C64.9 27.3 64.9 26.9 64.9 26.8H63.1C63.1 26.8 63.1 26.2 63.1 26.1C63 26.1 62.4 26.1 62.3 26.1Z" fill="#808890"/>
<path d="M61.3 28.4999C61.3 29.0999 61.9 29.5999 62.7 29.5999C63.5 29.5999 64.1 29.0999 64.1 28.4999C64.1 27.8999 63.5 27.3999 62.7 27.3999C61.9 27.4999 61.3 27.8999 61.3 28.4999ZM61.9 28.4999C61.9 28.1999 62.2 27.8999 62.6 27.8999C63 27.8999 63.3 28.1999 63.3 28.4999C63.3 28.7999 63 29.0999 62.6 29.0999C62.3 29.0999 61.9 28.8999 61.9 28.4999Z" fill="#808890"/>
<path d="M77.7 24.3999V27.2C77.7 27.5 77.5 27.6999 77.1 27.7999C76.9 27.7999 76.4 27.7999 75.6 27.7999H74.4V28.2999H75.6C76.1 28.2999 76.5 28.2999 76.6 28.2999C77.1 28.2999 77.4 28.1999 77.6 27.9999L77.7 27.8999V29.2999H78.4C78.4 29.2999 78.4 24.3999 78.4 24.2999C78.4 24.3999 77.8 24.3999 77.7 24.3999Z" fill="#808890"/>
<path d="M74.5 25.7999C74.5 26.5999 75.1 27.1999 75.9 27.1999C76.6 27.1999 77.3 26.5999 77.3 25.7999C77.3 24.9999 76.7 24.3999 75.9 24.3999C75.1 24.3999 74.5 25.0999 74.5 25.7999ZM75.2 25.7999C75.2 25.2999 75.5 24.9999 75.9 24.9999C76.3 24.9999 76.6 25.3999 76.6 25.7999C76.6 26.2999 76.3 26.5999 75.9 26.5999C75.5 26.5999 75.2 26.2999 75.2 25.7999Z" fill="#808890"/>
<path d="M91.5 27.3999V27.8999H89.8V27.3999H89.1V29.0999C89.1 29.2999 89.1 29.3999 89.2 29.3999C89.3 29.4999 89.4 29.4999 89.5 29.4999C89.5 29.4999 92.1 29.4999 92.2 29.4999C92.2 29.4999 92.2 27.4999 92.2 27.3999C92.2 27.3999 91.6 27.3999 91.5 27.3999ZM89.9 28.7999V28.3999H91.6V28.9999H90.1C89.9 28.9999 89.9 28.8999 89.9 28.7999Z" fill="#808890"/>
<path d="M88.3 25.7C88.3 26.4 88.9 27 89.6 27C90.2 27 90.8 26.5 90.9 25.9H91.6C91.6 25.9 91.6 27 91.6 27.1H92.3V24.5H91.6V25.5H90.9C90.8 24.9 90.2 24.5 89.6 24.5C88.8 24.4 88.3 25 88.3 25.7ZM89 25.7C89 25.3 89.3 25 89.6 25C89.9 25 90.2 25.3 90.2 25.7C90.2 26.1 89.9 26.4 89.6 26.4C89.2 26.5 89 26.1 89 25.7Z" fill="#808890"/>
<path d="M96.2 24.3999C96.2 24.3999 96.2 27.6999 96.2 27.7999H96.9C96.9 27.7999 96.9 24.4999 96.9 24.3999C96.9 24.3999 96.3 24.3999 96.2 24.3999Z" fill="#808890"/>
<path d="M93.8 27.7V29C93.8 29.2 93.9 29.3 94.1 29.3H97V28.8H94.6C94.5 28.8 94.4 28.7 94.4 28.6V27.6C94.5 27.7 93.9 27.7 93.8 27.7Z" fill="#808890"/>
<path d="M93.1 24.4999V24.9999H94V25.2C94 25.9 93.6 26.4999 92.9 26.8999L93.2 27.2999C93.5 27.1999 93.7 26.9999 93.9 26.7999C94.1 26.5999 94.3 26.4 94.3 26.2C94.4 26.4 94.5 26.5999 94.8 26.7999C95 26.9999 95.2 27.1 95.4 27.2L95.7 26.7999C95.4 26.5999 95.1 26.3999 94.9 26.0999C94.7 25.7999 94.6 25.5 94.6 25.2V24.9999C94.6 24.9999 95.4 24.9999 95.5 24.9999V24.4999C95.6 24.4999 93.2 24.4999 93.1 24.4999Z" fill="#808890"/>
<path d="M97.5 26.8999C97.5 26.8999 97.5 27.2999 97.5 27.3999C97.5 27.3999 101.8 27.3999 101.9 27.3999C101.9 27.3999 101.9 26.9999 101.9 26.8999C101.8 26.8999 97.5 26.8999 97.5 26.8999Z" fill="#808890"/>
<path d="M99.3 24.2999V24.7C99.3 24.7 98 24.7 97.9 24.7C97.9 24.7 97.9 25.1 97.9 25.2H98.7L98.6 25.2999C98.4 25.4999 98.4 25.5999 98.4 25.7999C98.4 26.2999 98.9 26.7 99.6 26.7C100.3 26.7 100.8 26.2999 100.8 25.7999C100.8 25.5999 100.7 25.3999 100.6 25.2999L100.5 25.2H101.3C101.3 25.2 101.3 24.8 101.3 24.7H99.9V24.2999C100 24.2999 99.4 24.2999 99.3 24.2999ZM99.1 25.7999C99.1 25.5999 99.3 25.2999 99.6 25.2999C99.9 25.2999 100.1 25.4999 100.1 25.7999C100.1 25.9999 99.9 26.2999 99.6 26.2999C99.4 26.1999 99.1 25.9999 99.1 25.7999Z" fill="#808890"/>
<path d="M105.7 24.3999V25.8999H105.3V24.3999H104.7V29.2999H105.3V26.3999H105.7C105.7 26.3999 105.7 29.2999 105.7 29.3999H106.3C106.3 29.3999 106.3 24.4999 106.3 24.3999C106.3 24.3999 105.8 24.3999 105.7 24.3999Z" fill="#808890"/>
<path d="M102.2 24.4999V24.9999H103V25.2C103 25.9 102.9 26.3999 102.8 26.7999C102.7 27.1999 102.4 27.5999 102.1 27.8999C102.1 27.8999 102.5 28.1999 102.5 28.2999C102.7 28.0999 102.9 27.9 103 27.7C103.2 27.4 103.3 27.1999 103.3 26.8999V26.7999C103.4 26.9999 103.5 27.2999 103.7 27.5999C103.8 27.7999 104 28 104.2 28.2C104.2 28.2 104.5 27.8999 104.6 27.7999C104.3 27.4999 104.1 27.2 104 26.7C103.9 26.3 103.8 25.8 103.8 25.2V24.9999C103.8 24.9999 104.5 24.9999 104.6 24.9999V24.4999C104.3 24.4999 102.2 24.4999 102.2 24.4999Z" fill="#808890"/>
<path d="M107.6 27.7V28.9999C107.6 29.0999 107.6 29.1999 107.7 29.2999C107.7 29.3999 107.8 29.3999 107.9 29.3999C107.9 29.3999 110.6 29.3999 110.7 29.3999V28.8999H108.5C108.4 28.8999 108.3 28.8 108.3 28.7V27.7H107.6Z" fill="#808890"/>
<path d="M109.8 24.3999V25.9999C109.8 26.1999 109.8 26.2999 109.7 26.3999C109.6 26.4999 109.5 26.4999 109.2 26.5999C109 26.5999 108.7 26.6999 108.3 26.6999C108.1 26.6999 107.9 26.6999 107.8 26.6999C107.7 26.6999 107.6 26.5999 107.6 26.4999V24.9999H109V24.4999H106.9V26.4999C106.9 26.6999 106.9 26.7999 107 26.8999C107.1 26.9999 107.2 27.0999 107.3 27.0999C107.4 27.0999 107.6 27.0999 107.8 27.0999C108.3 27.0999 108.8 27.0999 109.1 26.9999C109.4 26.8999 109.6 26.7999 109.7 26.6999L109.8 26.5999V27.7999H110.5V26.0999C110.5 26.0999 111.2 26.0999 111.3 26.0999V25.5999H110.5V24.3999C110.5 24.3999 109.9 24.3999 109.8 24.3999Z" fill="#808890"/>
<path d="M99.7 27.6C98.9 27.6 98.3 28.1 98.3 28.6C98.3 29.2 98.9 29.6 99.7 29.6C100.5 29.6 101.1 29.1 101.1 28.6C101.1 28 100.5 27.6 99.7 27.6ZM99.7 29.1C99.3 29.1 99 28.9 99 28.6C99 28.3 99.3 28.1 99.7 28.1C100.1 28.1 100.4 28.3 100.4 28.6C100.4 28.9 100.1 29.1 99.7 29.1Z" fill="#808890"/>
<path d="M30 3.3C29.9 3.9 28.9001 5.20002 26.3001 6.70002C23.4001 8.30002 19.8 10 16.2 12C13.1 13.6 12.5001 14.5 12.4001 16C12.2001 18.7 19 26.4 26.1 27.7C27.5 28 27.6 27.5 27.6 27.5C27.4 28.1 27 28.7 25.7 29.6C24.6 30.3 23.4001 30.3 22.9001 30.2C17.1001 29 7.50003 21.8 7.00003 17.9C6.50003 13.7 9.29998 11.5 17.2 8.3C24.8 5.2 28.9 2.90001 27.6 2.50001C27.5 2.40001 30.1 2.1 30 3.3Z" fill="url(#paint0_linear_99_72)"/>
<path d="M6 24.7L10.1 5.09998H6.5C5.7 5.09998 5.00005 5.69997 4.80005 6.49997L0.699951 26.1H4.30005C5.10005 26.1 5.8 25.5 6 24.7Z" fill="#567DAD"/>
<path d="M22 24.6C22.6 26 22.9 26.6 22.5 27.1C23.9 27.1 25.8 28 27.2 28C27.3 27.8 27.6 27.6 27.6 27.4C27.8 27 27.7 26.3 26.9 24.8C25.5 21.8 21.9 17.5 18 13.1L15.8 15.1C18.7 19.1 20.7 21.5 22 24.6Z" fill="url(#paint1_linear_99_72)"/>
<path d="M28.1999 0.399965C23.5999 -3.5312e-05 16.6999 2.69996 14.4999 4.89996C12.0999 7.29996 13.1 11.2 15.9 15.1L18.0999 13.1C17.0999 11.9 13.6999 8.49998 17.0999 6.19998C19.5999 4.49998 27 2.39998 29.4 2.69998C29.8 2.79998 30.0999 2.99996 30.0999 3.29996C30.0999 3.29996 30.1999 2.69997 30.0999 1.99997C29.6999 1.09997 28.9999 0.499965 28.1999 0.399965Z" fill="url(#paint2_linear_99_72)"/>
<path d="M16 27.1C18.4 28.6 20.9 29.7 22.9 30.1C23.4 30.2 24.7 30.2 25.7 29.5C27 28.6 27.4 28 27.6 27.4C27.6 27.4 27.5 27.9 26.1 27.6C23.9 27.2 21.8 26.2 19.8 24.9L16 27.1Z" fill="url(#paint3_linear_99_72)"/>
<path d="M72.1 21.3L73.8 13.1H72.2L71.5 16.6H67.3L68 13.1H66.4L64.5 22H65.3C65.7 22 66.1 21.7 66.2 21.3L66.9 18H71.1L70.3 22H71.1C71.7 22 72 21.7 72.1 21.3Z" fill="#9D2943"/>
<path d="M87.4 13.7C87.3 13.2 87 13.1 86.6 13.1H85.6L80.3 22H81.4C81.8 22 82.1 21.9 82.3 21.5L83.4 19.6H86.9L87.3 22H88.9L87.4 13.7ZM84 18.4L86.1 14.6L86.6 18.4H84Z" fill="#9D2943"/>
<path d="M95.9 21.3L96 20.7H91.5L93.1 13.1H91.5L89.6 22H94.8C95.3 22 95.8 21.7 95.9 21.3Z" fill="#9D2943"/>
<path d="M103.4 13.7L103.5 13.1H96.2L95.9 14.4H98.8L97.2 21.9H98.8L100.4 14.4H102.3C102.8 14.5 103.3 14.2 103.4 13.7Z" fill="#9D2943"/>
<path d="M81.5 13.7L81.6 13.1H75.1L73.3 22H79C79.5 22 79.8 21.8 79.9 21.3L80 20.7H75L75.5 18.1H79.3C79.8 18.1 80.2 18 80.3 17.4L80.4 16.8H75.8L76.3 14.5H80.3C81 14.4 81.4 14.3 81.5 13.7Z" fill="#9D2943"/>
<path d="M109.9 21.3L111.6 13.1H110L109.3 16.6H105.1L105.8 13.1H104.2L102.4 22H103.2C103.6 22 104 21.7 104.1 21.3L104.8 18H109L108.2 22H109C109.5 22 109.9 21.7 109.9 21.3Z" fill="#9D2943"/>
<path d="M31.9 8.19995H38.5C42.3 8.19995 42.9 9.69993 42.9 11.2999C42.9 13.1999 41.9 14.3999 40.3 14.7999C41.6 15.0999 42.3 16.2999 42.3 17.5999C42.3 20.4999 40 22.2999 35.9 22.3999H29L31.9 8.19995ZM33.2 19.4999H36.1C37.4 19.4999 38.6 19.2 38.6 17.7C38.6 16.4 37.4 16.2999 36.5 16.2999H33.9L33.2 19.4999ZM34.4 13.7999H37C38.5 13.7999 39.2 13.3 39.2 12.2C39.2 11.2 38.1 11.0999 37.3 11.0999H34.9L34.4 13.7999Z" fill="#567DAD"/>
<path d="M57.9 7.89996C60.4 7.89996 64.2 8.79996 64.2 13.9C64.2 18.9 61.3 22.7 56.2 22.7C52.3 22.7 50 20.4 50 16.4C50 11.7 53 7.89996 57.9 7.89996ZM56.5 19.6C59.2 19.6 60.5 16.4 60.5 14.2C60.5 12.1 59.7 10.9 57.8 10.9C54.9 10.9 53.7 14 53.7 16.4C53.7 18.2 54.5 19.6 56.5 19.6Z" fill="#567DAD"/>
<path d="M47.1 20.7L49.7 8.19995H47.7C46.7 8.19995 45.9 8.89993 45.7 9.79993L43.1 22.2999H45.1C46.1 22.3999 46.9 21.7 47.1 20.7Z" fill="#567DAD"/>
<path d="M112.7 21.8999C111.8 21.8999 111.1 21.1999 111.1 20.2999C111.1 19.3999 111.8 18.7 112.7 18.7C113.6 18.7 114.3 19.3999 114.3 20.2999C114.3 21.1999 113.5 21.8999 112.7 21.8999ZM112.7 18.9999C112 18.9999 111.4 19.5999 111.4 20.2999C111.4 20.9999 112 21.5999 112.7 21.5999C113.4 21.5999 114 20.9999 114 20.2999C114 19.5999 113.4 18.9999 112.7 18.9999Z" fill="#9D2943"/>
<path d="M113 21.0999L112.6 20.4999H112.3V21.0999H112V19.4999H112.7C112.8 19.4999 112.9 19.4999 112.9 19.4999C113 19.4999 113 19.5999 113.1 19.5999C113.1 19.5999 113.2 19.6999 113.2 19.7999C113.2 19.8999 113.2 19.8999 113.2 19.9999C113.2 20.0999 113.2 20.1999 113.1 20.2999C113 20.3999 113 20.3999 112.8 20.4999L113.3 21.2H113V21.0999ZM112.7 20.2C112.8 20.2 112.8 20.2 112.7 20.2C112.8 20.1 112.8 20.0999 112.8 20.0999V19.9999C112.8 19.8999 112.8 19.8999 112.7 19.7999C112.6 19.7999 112.6 19.7 112.5 19.7H112.1V20.0999L112.7 20.2Z" fill="#952941"/>
<defs>
<linearGradient id="paint0_linear_99_72" x1="11.2394" y1="24.935" x2="34.1204" y2="9.92802" gradientUnits="userSpaceOnUse">
<stop offset="0.7" stop-color="#567DAD"/>
<stop offset="1" stop-color="#4170A0"/>
</linearGradient>
<linearGradient id="paint1_linear_99_72" x1="17.3536" y1="15.3269" x2="26.1557" y2="27.7424" gradientUnits="userSpaceOnUse">
<stop stop-color="#9D2943"/>
<stop offset="0.4911" stop-color="#9A2842"/>
<stop offset="0.7861" stop-color="#92233D"/>
<stop offset="1" stop-color="#861D37"/>
</linearGradient>
<linearGradient id="paint2_linear_99_72" x1="13.5269" y1="10.2283" x2="30.4783" y2="3.4663" gradientUnits="userSpaceOnUse">
<stop stop-color="#9D2943"/>
<stop offset="0.4256" stop-color="#A02C45"/>
<stop offset="0.7668" stop-color="#AA344B"/>
<stop offset="1" stop-color="#B63D52"/>
</linearGradient>
<linearGradient id="paint3_linear_99_72" x1="18.3243" y1="26.394" x2="26.2446" y2="29.1267" gradientUnits="userSpaceOnUse">
<stop offset="0.5" stop-color="#567DAD"/>
<stop offset="1" stop-color="#7490BF"/>
</linearGradient>
</defs>
</svg>
