<svg width="32" height="47" viewBox="0 0 32 47" fill="none" xmlns="http://www.w3.org/2000/svg">
<path d="M28.7001 3.8999H19.8001V1.5C19.8001 1.2 19.6001 0.899902 19.2001 0.899902H12.9001C12.6001 0.899902 12.3001 1.1 12.3001 1.5V3.8999H3.40015C1.80015 3.8999 0.600098 5.19995 0.600098 6.69995V34.3999C0.600098 35.9999 1.90015 37.2 3.40015 37.2H6.70013L2.1001 46.8999H5.50012L6.50012 44.7H26.2001L27.2001 46.8999H30.6001L26.0001 37.2H28.9001C30.5001 37.2 31.7001 35.8999 31.7001 34.3999V6.69995C31.5001 5.19995 30.3001 3.8999 28.7001 3.8999ZM4.00012 10.1001C4.00012 8.5001 4.80015 7.69995 6.40015 7.69995H25.6001C27.2001 7.69995 28.0001 8.5001 28.0001 10.1001V17.3C28.0001 18.9 27.2001 20.1001 25.6001 20.1001H6.40015C4.80015 20.1001 4.00012 19.3 4.00012 17.7V10.1001ZM3.70013 28.5C3.70013 26.8 5.00013 25.5 6.70013 25.5C8.40013 25.5 9.70013 26.8 9.70013 28.5C9.70013 30.2 8.40013 31.5 6.70013 31.5C5.10013 31.5 3.70013 30.2 3.70013 28.5ZM7.40015 42.7L8.20013 40.8999H24.3001L25.1001 42.7H7.40015ZM23.4001 38.7H9.20013L9.80011 37.3999H22.8001L23.4001 38.7ZM25.2001 31.5C23.5001 31.5 22.2001 30.2 22.2001 28.5C22.2001 26.8 23.5001 25.5 25.2001 25.5C26.9001 25.5 28.2001 26.8 28.2001 28.5C28.2001 30.2 26.9001 31.5 25.2001 31.5Z" fill="#DDDDDD"/>
</svg>
