<svg width="14" height="14" viewBox="0 0 14 14" fill="none" xmlns="http://www.w3.org/2000/svg">
<path d="M7.27791 0.221069C3.64001 0.221069 0.608398 3.25262 0.608398 6.89052C0.608398 10.5284 3.64001 13.56 7.27791 13.56C10.9158 13.56 13.9474 10.5284 13.9474 6.89052C13.9474 3.25262 10.9158 0.221069 7.27791 0.221069ZM1.82104 6.99161H1.21475C1.1137 6.99161 1.11366 6.89052 1.11366 6.89052L1.21475 6.78949H1.82104C1.92209 6.78949 1.92207 6.89052 1.92207 6.89052L1.82104 6.99161ZM7.17682 0.726332C7.17682 0.62528 7.27791 0.625305 7.27791 0.625305L7.37894 0.726332V1.33262C7.37894 1.43368 7.27791 1.43371 7.27791 1.43371L7.17682 1.33262V0.726332ZM7.37894 13.0548C7.37894 13.1558 7.27791 13.1558 7.27791 13.1558L7.17682 13.0548V12.3474C7.17682 12.2463 7.27791 12.2464 7.27791 12.2464L7.37894 12.3474V13.0548ZM12.8358 8.10316C12.8358 8.30527 12.6336 8.40633 12.5326 8.30528L8.18735 7.5979C7.98524 7.90106 7.68208 8.20425 7.17682 8.20425C6.5705 8.20425 6.06527 7.69895 6.06527 7.09264C6.06527 6.89053 6.06524 6.78948 6.16629 6.58737L4.24633 4.06106C4.04422 3.85895 4.14525 3.45473 4.34736 3.35368C4.54946 3.15157 4.95369 3.25266 5.05474 3.45477L6.9747 5.98108C7.07575 5.98108 7.07577 5.98108 7.17682 5.98108C7.78314 5.98108 8.28844 6.48634 8.28844 6.99161L12.5326 7.69899C12.7347 7.80004 12.8358 7.90106 12.8358 8.10316ZM13.4421 6.99161H12.8358C12.7348 6.99161 12.7347 6.89052 12.7347 6.89052L12.8358 6.78949H13.4421C13.5431 6.78949 13.5431 6.89052 13.5431 6.89052C13.5431 6.89052 13.5431 6.99161 13.4421 6.99161Z" fill="#79191C"/>
</svg>
