<svg width="38" height="36" viewBox="0 0 38 36" fill="none" xmlns="http://www.w3.org/2000/svg">
<path d="M36.2 8.19995H35.1C34.9 8.19995 34.7 8.20005 34.6 8.30005V1.80005C34.6 0.800049 33.8 0 32.8 0H5.70001C4.70001 0 3.90002 0.800049 3.90002 1.80005V8.30005C3.70002 8.20005 3.60002 8.19995 3.40002 8.19995H2.29999C1.29999 8.19995 0.5 9 0.5 10V11.1001C0.5 12.1001 1.29999 12.8999 2.29999 12.8999H3.40002C3.60002 12.8999 3.80002 12.9 3.90002 12.8V31.7C3.90002 32.5 4.40001 33.1999 5.20001 33.3999V35.8H10.5V33.5H27.8V35.8H33.1V33.3999C33.9 33.1999 34.6 32.5001 34.6 31.6001V12.7C34.8 12.8 34.9 12.8 35.1 12.8H36.2C37.2 12.8 38 12 38 11V9.8999C38 8.9999 37.2 8.19995 36.2 8.19995ZM5.70001 4.3999C5.70001 3.3999 6.5 2.6001 7.5 2.6001H31.3C32.3 2.6001 33.1 3.3999 33.1 4.3999V17.7C33.1 18.7 32.3 19.5 31.3 19.5H7.5C6.5 19.5 5.70001 18.7 5.70001 17.7V4.3999ZM9.90002 29.3999H6.29999C5.69999 29.3999 5.20001 28.9 5.20001 28.3C5.20001 27.7 5.69999 27.2 6.29999 27.2H9.90002C10.5 27.2 11 27.7 11 28.3C11 28.9 10.5 29.3999 9.90002 29.3999ZM26.2 29.7H12.8V28.6001H26.2V29.7ZM26.2 28H12.8V26.8999H26.2V28ZM32.2 29.3999H28.6C28 29.3999 27.5 28.9 27.5 28.3C27.5 27.7 28 27.2 28.6 27.2H32.2C32.8 27.2 33.3 27.7 33.3 28.3C33.3 28.9 32.8 29.3999 32.2 29.3999Z" fill="#DDDDDD"/>
<path d="M15.8002 4H8.00018C8.00018 4 6.7002 3.99995 6.7002 5.19995V13.6001C6.7002 13.6001 6.70017 6.4 15.8002 4Z" fill="#DDDDDD"/>
</svg>
