<svg width="17" height="17" viewBox="0 0 17 17" fill="none" xmlns="http://www.w3.org/2000/svg">
<path d="M15.2397 6.02109C14.9366 4.70741 14.3302 3.59584 13.5218 2.68637C12.3092 1.27163 10.5913 0.463196 8.87343 0.463196C7.15553 0.463196 5.43766 1.27163 4.22503 2.68637C3.41661 3.59584 2.81028 4.80846 2.50713 6.02109C2.50713 6.02109 2.50709 6.02109 2.40604 6.02109C1.49656 6.12214 0.486085 7.33479 0.688191 8.74952C0.890296 9.96216 1.9008 10.8716 2.81027 11.0737C3.21448 12.0842 3.82079 13.0948 4.62921 13.8022C5.53868 14.7116 6.6503 15.2169 7.76187 15.419C7.86293 15.7221 8.16604 16.0253 8.46919 16.0253C8.77235 16.0253 9.07552 15.8232 9.17657 15.5201C9.17657 15.419 9.27766 15.3179 9.27766 15.2169C9.27766 15.1158 9.27763 14.9137 9.17657 14.8127C9.07552 14.6106 8.77235 14.4084 8.46919 14.4084C8.16604 14.4084 7.96396 14.5095 7.8629 14.7116C6.85238 14.5095 5.84186 14.0042 5.03344 13.1958C4.32607 12.4884 3.71972 11.68 3.41656 10.6695C3.51761 10.4674 3.51765 10.2653 3.51765 9.96217C3.51765 9.76006 3.51761 9.55792 3.41656 9.35581C3.31551 9.05266 3.31556 8.74954 3.21451 8.44638C3.21451 8.24427 3.21451 7.9411 3.21451 7.739C3.21451 4.90952 4.83131 2.48426 7.15552 1.67584C7.66078 1.47373 8.16608 1.37269 8.7724 1.37269C11.804 1.37269 14.3303 4.20216 14.3303 7.739C14.3303 7.84005 14.3303 7.94109 14.3303 8.04214C14.3303 8.1432 14.3303 8.34533 14.3303 8.44638C14.3303 8.74954 14.2292 9.05266 14.1282 9.35581C14.1282 9.55792 14.0271 9.76006 14.0271 9.96217C14.0271 10.0632 14.0271 10.1643 14.0271 10.2653C14.0271 10.5685 14.2292 10.8716 14.4313 10.9727C14.4313 10.9727 14.4313 10.9727 14.5324 10.9727H14.6334C15.5429 10.9727 16.6545 9.96212 16.8566 8.64843C17.1598 7.4358 16.1492 6.12214 15.2397 6.02109Z" fill="#79191C"/>
</svg>
