<svg width="17" height="14" viewBox="0 0 17 14" fill="none" xmlns="http://www.w3.org/2000/svg">
<path d="M10.5808 7.77684C12.4784 7.77684 14.0166 6.23862 14.0166 4.34109C14.0166 2.44355 12.4784 0.905273 10.5808 0.905273C8.6833 0.905273 7.14502 2.44355 7.14502 4.34109C7.14502 6.23862 8.6833 7.77684 10.5808 7.77684Z" fill="#79191C"/>
<path d="M16.5428 13.1326H4.51758C4.51758 10.4042 6.74074 8.07999 9.57021 8.07999H11.5913C14.3197 8.07999 16.5428 10.4042 16.5428 13.1326Z" fill="#79191C"/>
<path d="M6.43767 6.26106H3.7093V3.53262C3.7093 3.43157 3.60823 3.33057 3.50718 3.33057C3.40613 3.33057 3.30506 3.43157 3.30506 3.53262V6.26106H0.576629C0.475577 6.26106 0.374512 6.36212 0.374512 6.46317C0.374512 6.56423 0.475577 6.66529 0.576629 6.66529H3.30506V9.39372C3.30506 9.49478 3.40613 9.59578 3.50718 9.59578C3.60823 9.59578 3.7093 9.49478 3.7093 9.39372V6.66529H6.43767C6.53872 6.66529 6.63979 6.56423 6.63979 6.46317C6.63979 6.36212 6.53872 6.26106 6.43767 6.26106Z" fill="#79191C"/>
</svg>
