<svg width="36" height="34" viewBox="0 0 36 34" fill="none" xmlns="http://www.w3.org/2000/svg">
<path d="M35.1999 15.6001L33.6999 4.8999V4.69995C33.1999 2.69995 31.7999 1.4999 30.9999 0.899902C30.5999 0.599902 30.1999 0.5 29.6999 0.5L7.8999 0.300049H7.79987C3.79987 0.500049 2.39989 3.40005 2.19989 4.80005L0.69989 15.8C0.49989 16.1 0.399902 16.4 0.399902 16.7V26.8C0.399902 27.7 1.09988 28.3999 1.99988 28.3999H2.3999V32.3999C2.3999 33.2999 3.09988 34 3.99988 34H5.59985C6.49985 34 7.19989 33.2999 7.19989 32.3999V28.3999H29.2999V32.3999C29.2999 33.2999 29.9999 34 30.8999 34H32.4999C33.3999 34 34.0999 33.2999 34.0999 32.3999V28.3999H34.3999C35.2999 28.3999 35.9999 27.7 35.9999 26.8V16.7C35.7999 16.3 35.5999 15.9001 35.1999 15.6001ZM5.29987 5.30005C5.29987 5.20005 5.4999 3.7 7.8999 3.5H29.1999C29.5999 3.8 30.3999 4.3999 30.6999 5.3999L31.7999 13.6001H4.19989L5.29987 5.30005ZM5.49988 24.3C4.09988 24.3 2.99988 23.2 2.99988 21.8C2.99988 20.4 4.09988 19.3 5.49988 19.3C6.89988 19.3 7.99988 20.4 7.99988 21.8C7.99988 23.2 6.89988 24.3 5.49988 24.3ZM25.0999 25.5H11.2999C10.8999 25.5 10.4999 25.1 10.4999 24.7C10.4999 24.3 10.8999 23.8999 11.2999 23.8999H25.0999C25.4999 23.8999 25.8999 24.3 25.8999 24.7C25.8999 25.1 25.4999 25.5 25.0999 25.5ZM25.0999 22.3H11.2999C10.8999 22.3 10.4999 21.9 10.4999 21.5C10.4999 21.1 10.8999 20.7 11.2999 20.7H25.0999C25.4999 20.7 25.8999 21.1 25.8999 21.5C25.8999 22 25.4999 22.3 25.0999 22.3ZM28.3999 21.8C28.3999 20.4 29.4999 19.3 30.8999 19.3C32.2999 19.3 33.3999 20.4 33.3999 21.8C33.3999 23.2 32.2999 24.3 30.8999 24.3C29.4999 24.3 28.3999 23.2 28.3999 21.8Z" fill="#DDDDDD"/>
</svg>
